{"glyphs":{"0":{"ha":815,"x_min":83,"x_max":732,"o":"m 408 910 q 570 910 408 910 q 732 444 732 910 q 408 -21 732 -21 q 83 444 83 -21 q 408 910 83 910 m 408 819 q 305 819 408 819 q 201 444 201 819 q 408 69 201 69 q 614 444 614 69 q 408 819 614 819 z "},"1":{"ha":521,"x_min":14,"x_max":396,"o":"m 301 900 q 332 901 314 901 q 365 900 350 901 q 392 899 381 899 q 372 413 372 749 q 396 3 372 78 q 311 -11 350 -11 q 249 -8 272 -11 q 268 415 268 154 q 260 768 268 676 q 78 639 104 665 q 14 750 24 699 q 301 900 103 786 z "},"2":{"ha":747,"x_min":69,"x_max":671,"o":"m 89 671 q 160 843 89 776 q 358 910 231 910 q 565 847 485 910 q 646 667 646 783 q 599 519 646 599 q 494 378 553 439 q 242 96 292 165 q 367 94 288 94 q 544 101 447 94 q 665 114 640 107 q 671 58 671 89 q 660 -8 671 28 q 442 4 557 4 q 214 -3 326 4 q 75 -15 101 -10 q 69 33 69 1 q 289 307 132 146 q 403 428 347 367 q 524 663 524 561 q 486 776 524 724 q 374 828 449 828 q 251 781 299 828 q 203 656 203 733 q 204 626 203 638 q 153 624 190 624 q 93 636 117 624 q 89 671 89 653 z "},"3":{"ha":735,"x_min":53,"x_max":665,"o":"m 333 68 q 492 117 440 68 q 544 240 544 167 q 431 411 544 371 q 314 406 353 406 q 243 410 275 406 q 236 458 236 433 q 250 507 236 483 q 358 497 282 497 q 476 545 435 497 q 518 658 518 593 q 478 775 518 722 q 362 828 438 828 q 238 781 286 828 q 190 656 190 733 q 192 626 190 638 q 141 624 178 624 q 81 636 104 624 q 76 671 76 653 q 147 843 76 776 q 345 910 218 910 q 553 847 472 910 q 633 667 633 783 q 508 461 633 513 q 665 240 665 401 q 585 51 665 122 q 328 -21 504 -21 q 53 71 153 -21 q 74 131 58 104 q 103 169 89 158 l 115 181 q 212 97 151 126 q 333 68 272 68 z "},"4":{"ha":710,"x_min":14,"x_max":640,"o":"m 367 888 q 453 901 408 901 q 569 896 497 901 q 550 549 550 742 q 551 297 550 356 q 635 307 621 303 q 640 251 640 282 q 629 185 640 221 q 556 192 604 189 q 574 3 563 33 q 489 -11 528 -11 q 426 -8 450 -11 q 442 196 438 90 q 244 197 399 197 q 18 189 90 197 q 14 239 14 201 q 83 356 32 271 q 151 472 133 442 q 206 570 168 503 q 265 678 244 638 q 367 888 329 800 m 164 289 q 285 288 217 288 q 444 290 353 288 q 446 519 446 338 q 435 804 446 700 q 164 289 343 668 z "},"5":{"ha":738,"x_min":56,"x_max":668,"o":"m 236 536 q 370 549 306 549 q 499 523 435 549 q 600 454 564 497 q 668 253 668 371 q 587 57 668 135 q 331 -21 506 -21 q 56 71 156 -21 q 76 131 61 104 q 106 169 92 158 l 118 181 q 215 97 154 126 q 336 68 275 68 q 494 124 442 68 q 547 258 547 179 q 501 399 547 336 q 344 461 454 461 q 172 419 233 461 q 111 428 133 419 q 139 608 129 479 q 149 806 149 736 q 147 897 149 876 q 397 888 274 888 q 638 900 519 888 q 643 844 643 875 q 632 778 643 814 q 523 791 608 785 q 388 797 438 797 q 261 796 338 796 q 236 536 239 656 z "},"6":{"ha":763,"x_min":83,"x_max":686,"o":"m 394 910 q 588 846 524 910 q 654 682 651 782 q 650 649 654 667 q 579 638 614 638 q 529 640 544 638 q 531 667 531 650 q 494 783 531 740 q 390 826 457 826 q 252 726 306 826 q 199 454 199 626 q 419 553 274 553 q 608 478 529 553 q 686 274 686 403 q 599 63 686 146 q 382 -21 513 -21 q 149 85 215 -21 q 83 415 83 192 q 165 797 83 674 q 256 877 197 844 q 394 910 315 910 m 378 69 q 415 69 378 69 q 510 119 453 69 q 568 267 568 169 q 521 417 568 365 q 397 468 474 468 q 262 413 319 468 q 204 263 204 358 q 253 118 204 167 q 378 69 303 69 z "},"7":{"ha":619,"x_min":22,"x_max":596,"o":"m 419 796 q 317 797 385 797 q 151 791 250 797 q 28 778 53 785 q 22 833 22 803 q 33 900 22 864 q 252 888 136 888 q 467 894 368 888 q 590 907 565 900 q 596 858 596 882 q 390 408 485 654 q 274 3 294 163 q 199 -11 233 -11 q 132 -6 165 -11 q 419 796 214 267 z "},"8":{"ha":785,"x_min":83,"x_max":701,"o":"m 260 463 q 108 682 108 550 q 178 845 108 781 q 394 910 249 910 q 679 676 679 910 q 539 444 679 561 q 701 222 701 358 q 608 42 701 106 q 392 -21 515 -21 q 153 50 239 -21 q 83 218 83 107 q 260 463 83 329 m 392 82 q 530 128 481 82 q 579 226 579 174 q 557 292 579 269 q 522 326 535 315 q 481 353 510 338 l 436 375 q 385 400 422 383 q 335 424 349 417 q 206 215 206 318 q 392 82 206 82 m 301 564 q 369 524 342 538 q 457 483 396 510 q 539 575 514 521 q 564 676 564 629 q 396 828 564 828 q 278 793 328 828 q 228 686 228 758 q 301 564 228 614 z "},"9":{"ha":763,"x_min":76,"x_max":679,"o":"m 361 -21 q 163 43 228 -21 q 94 207 97 107 q 99 240 94 222 q 169 251 135 251 q 219 249 204 251 q 218 222 218 239 q 256 106 218 149 q 364 63 294 63 q 564 435 564 63 q 343 336 489 336 q 155 411 233 336 q 76 615 76 486 q 163 826 76 743 q 381 910 250 910 q 613 799 547 910 q 679 460 679 689 q 361 -21 679 -21 m 367 421 q 405 421 367 421 q 501 471 443 421 q 558 619 558 521 q 511 768 558 717 q 387 819 464 819 q 252 765 310 819 q 194 615 194 710 q 243 470 194 519 q 367 421 292 421 z "},"\t":{"ha":207,"x_min":0,"x_max":0,"o":""},"\n":{"ha":190,"x_min":0,"x_max":0,"o":""},"\r":{"ha":435,"x_min":0,"x_max":0,"o":""}," ":{"ha":319,"x_min":0,"x_max":0,"o":""},"!":{"ha":375,"x_min":125,"x_max":306,"o":"m 168 521 q 132 921 168 776 q 213 936 174 936 q 285 928 251 936 q 257 340 257 665 q 260 250 257 294 q 213 242 233 242 q 165 250 192 242 q 168 521 168 397 m 306 76 q 281 7 306 35 q 204 -21 256 -21 q 125 60 125 -21 q 226 160 125 160 q 306 76 306 160 z "},"\"":{"ha":488,"x_min":83,"x_max":404,"o":"m 83 940 q 156 947 115 947 q 210 943 197 947 q 194 621 194 775 q 145 613 169 613 q 104 617 121 613 q 83 940 104 799 m 278 940 q 351 947 310 947 q 404 943 392 947 q 389 621 389 775 q 340 613 364 613 q 299 617 315 613 q 278 940 299 799 z "},"#":{"ha":1060,"x_min":69,"x_max":990,"o":"m 660 -64 q 565 -37 606 -64 q 626 213 599 88 q 497 214 568 214 q 342 211 425 214 q 301 -61 329 135 q 271 -64 276 -64 q 176 -37 217 -64 q 236 207 201 57 q 76 194 122 203 q 69 249 69 215 q 85 317 69 282 q 258 307 154 310 q 311 581 292 474 q 149 568 193 576 q 142 622 142 589 q 157 690 142 656 q 329 681 228 683 q 371 954 351 815 q 418 956 382 956 q 494 931 454 956 q 432 678 463 813 l 621 678 q 718 679 676 678 q 760 954 742 819 q 807 956 771 956 q 883 931 843 956 q 822 683 860 846 q 983 697 957 692 q 990 643 990 676 q 975 575 990 610 q 800 583 879 582 q 747 310 768 426 q 911 324 885 318 q 918 269 918 303 q 903 201 918 236 q 731 210 810 208 q 690 -61 718 133 q 660 -64 665 -64 m 549 304 q 647 306 606 304 q 701 586 678 449 q 569 588 642 588 q 411 585 497 588 q 357 304 383 454 l 549 304 z "},"$":{"ha":764,"x_min":97,"x_max":663,"o":"m 436 1036 q 424 907 425 922 q 594 829 539 896 q 649 664 649 763 q 644 629 649 647 q 572 617 608 617 q 519 619 536 617 q 521 649 521 631 q 493 758 521 713 q 417 819 465 804 q 403 503 407 681 q 478 463 454 476 q 544 419 501 450 q 607 361 586 388 q 663 194 663 289 q 588 40 663 100 q 406 -21 514 -21 l 399 -21 q 404 -110 401 -92 q 344 -128 372 -128 q 297 -124 315 -128 l 307 -12 q 97 85 178 8 q 120 146 103 118 q 153 183 138 174 l 167 194 q 313 82 225 113 q 329 410 322 235 q 224 474 264 444 q 149 558 183 503 q 115 692 115 613 q 169 833 115 771 q 333 907 222 896 l 329 1022 q 385 1040 356 1040 q 436 1036 414 1040 m 399 90 l 399 68 q 509 108 474 69 q 544 201 544 147 q 508 294 544 254 q 400 372 471 333 q 399 90 399 278 m 336 753 l 336 825 q 235 694 235 806 q 333 544 235 611 q 336 753 336 617 z "},"%":{"ha":1235,"x_min":69,"x_max":1165,"o":"m 465 -64 q 386 -37 418 -64 q 739 953 558 368 q 775 956 761 956 q 849 931 814 956 q 494 -61 681 543 q 465 -64 472 -64 m 961 549 q 1063 549 961 549 q 1165 268 1165 549 q 961 -12 1165 -12 q 757 268 757 -12 q 961 549 757 549 m 962 475 q 908 475 962 475 q 854 268 854 475 q 962 61 854 61 q 1069 268 1069 61 q 962 475 1069 475 m 274 907 q 376 907 274 907 q 478 626 478 907 q 274 346 478 346 q 69 626 69 346 q 274 907 69 907 m 274 833 q 220 833 274 833 q 167 626 167 833 q 274 419 167 419 q 382 626 382 419 q 274 833 382 833 z "},"&":{"ha":825,"x_min":69,"x_max":797,"o":"m 101 667 q 176 846 101 782 q 343 910 251 910 q 498 865 435 910 q 561 736 561 821 q 558 704 561 726 q 494 693 522 693 q 432 696 465 693 q 433 722 433 706 q 410 801 433 769 q 335 832 386 832 q 250 776 283 832 q 217 663 217 721 q 275 524 217 560 q 475 489 333 489 q 546 490 521 489 l 539 592 q 612 603 574 603 q 675 597 650 603 l 663 489 q 789 496 692 490 q 797 456 797 476 q 792 404 797 435 q 657 411 739 406 q 654 331 654 385 l 654 71 q 391 -21 558 -21 q 147 51 224 -21 q 69 240 69 122 q 226 461 69 401 q 101 667 101 513 m 549 129 l 551 382 l 551 410 q 432 413 463 413 q 244 378 297 413 q 190 240 190 343 q 239 117 190 167 q 383 68 288 68 q 549 129 479 68 z "},"'":{"ha":293,"x_min":83,"x_max":210,"o":"m 83 940 q 156 947 115 947 q 210 943 197 947 q 194 621 194 775 q 145 613 169 613 q 104 617 121 613 q 83 940 104 799 z "},"(":{"ha":429,"x_min":90,"x_max":388,"o":"m 388 999 q 204 457 204 756 q 388 -83 204 158 q 297 -103 326 -103 q 258 -101 268 -103 q 90 458 90 149 q 258 1017 90 767 q 297 1018 268 1018 q 388 999 326 1018 z "},")":{"ha":429,"x_min":42,"x_max":339,"o":"m 42 999 q 132 1018 103 1018 q 171 1017 161 1018 q 339 458 339 767 q 171 -101 339 149 q 132 -103 161 -103 q 42 -83 103 -103 q 225 457 225 158 q 42 999 225 756 z "},"*":{"ha":553,"x_min":53,"x_max":497,"o":"m 219 931 q 283 938 249 938 q 329 931 317 938 q 317 771 319 854 q 465 835 393 799 q 483 795 471 825 q 497 729 496 765 q 335 693 417 719 q 446 569 389 622 q 357 504 386 510 q 272 646 307 600 q 192 507 233 592 q 129 541 153 524 q 101 568 106 558 q 208 694 165 635 q 53 729 136 718 q 67 797 54 765 q 85 835 81 829 q 238 769 160 796 q 219 931 236 836 z "},"+":{"ha":835,"x_min":121,"x_max":714,"o":"m 360 742 q 426 751 390 751 q 482 747 463 751 q 469 635 475 724 q 463 500 463 547 q 598 506 510 500 q 710 519 686 513 q 714 464 714 500 q 704 397 714 428 q 463 410 599 407 q 475 168 463 260 q 408 158 444 158 q 353 163 372 158 q 372 410 368 224 q 125 390 186 406 q 121 446 121 410 q 131 513 121 482 q 372 500 222 500 q 360 742 369 636 z "},",":{"ha":363,"x_min":97,"x_max":293,"o":"m 104 -211 q 97 -177 97 -190 q 101 -143 97 -164 q 194 -47 194 -143 q 158 -8 194 -12 q 106 60 106 -4 q 128 134 106 108 q 211 160 151 160 q 293 49 293 160 q 249 -137 293 -62 q 104 -211 204 -211 z "},"-":{"ha":492,"x_min":83,"x_max":408,"o":"m 92 272 q 83 315 83 292 q 92 372 83 339 q 400 401 354 390 q 408 358 408 382 q 400 301 408 335 q 92 272 138 283 z "},".":{"ha":375,"x_min":125,"x_max":306,"o":"m 306 76 q 281 7 306 35 q 204 -21 256 -21 q 125 60 125 -21 q 226 160 125 160 q 306 76 306 160 z "},"/":{"ha":786,"x_min":133,"x_max":674,"o":"m 225 -64 q 133 -37 171 -64 q 546 953 342 382 q 602 956 571 956 q 674 931 633 956 q 260 -61 468 525 q 225 -64 235 -64 z "},":":{"ha":367,"x_min":121,"x_max":301,"o":"m 301 76 q 276 7 301 35 q 200 -21 251 -21 q 121 60 121 -21 q 222 160 121 160 q 301 76 301 160 m 301 581 q 276 511 301 539 q 200 483 251 483 q 121 564 121 483 q 222 664 121 664 q 301 581 301 664 z "},";":{"ha":376,"x_min":113,"x_max":308,"o":"m 301 581 q 276 511 301 539 q 200 483 251 483 q 121 564 121 483 q 222 664 121 664 q 301 581 301 664 m 119 -211 q 113 -177 113 -190 q 117 -143 113 -164 q 210 -47 210 -143 q 174 -8 210 -12 q 121 60 121 -4 q 144 134 121 108 q 226 160 167 160 q 308 49 308 160 q 264 -137 308 -62 q 119 -211 219 -211 z "},"<":{"ha":835,"x_min":93,"x_max":664,"o":"m 103 399 q 93 453 93 418 q 103 510 93 489 q 511 719 275 575 q 611 786 592 768 q 641 737 624 771 q 664 675 658 703 q 403 553 558 633 q 217 454 249 472 q 414 349 282 418 q 664 233 546 281 q 641 172 658 206 q 611 122 624 138 q 511 189 592 140 q 103 399 279 331 z "},"=":{"ha":835,"x_min":121,"x_max":714,"o":"m 704 536 q 456 549 576 549 q 243 542 336 549 q 125 529 150 536 q 121 584 121 547 q 131 651 121 621 q 363 639 226 639 q 710 658 640 639 q 714 603 714 640 q 704 536 714 567 m 704 258 q 456 271 576 271 q 243 265 336 271 q 125 251 150 258 q 121 307 121 271 q 131 374 121 343 q 363 361 226 361 q 710 381 640 361 q 714 326 714 363 q 704 258 714 289 z "},">":{"ha":835,"x_min":93,"x_max":664,"o":"m 654 510 q 664 453 664 489 q 654 399 664 418 q 244 189 478 331 q 146 122 165 140 q 116 172 133 138 q 93 233 99 206 q 343 349 211 281 q 540 454 475 418 q 388 535 476 490 q 93 675 211 628 q 116 737 99 703 q 146 786 133 771 q 244 719 165 768 q 654 510 478 578 z "},"?":{"ha":638,"x_min":132,"x_max":575,"o":"m 132 888 l 133 903 q 315 935 207 935 q 499 878 424 935 q 575 736 575 822 q 550 644 575 686 q 490 574 525 603 q 419 519 454 546 q 333 393 333 456 q 372 286 333 331 q 286 238 336 242 q 239 401 239 332 q 319 551 239 471 q 366 595 331 563 q 415 644 401 628 q 460 744 460 694 q 420 824 460 793 q 308 854 381 854 q 160 799 235 854 q 132 888 132 844 m 407 76 q 382 7 407 35 q 306 -21 357 -21 q 226 60 226 -21 q 328 160 226 160 q 407 76 407 160 z "},"@":{"ha":1213,"x_min":106,"x_max":1131,"o":"m 774 -47 q 779 -92 779 -58 q 768 -156 779 -125 q 521 -190 668 -190 q 210 -83 315 -190 q 106 236 106 25 q 256 714 106 546 q 685 882 407 882 q 1016 770 901 882 q 1131 447 1131 658 q 1033 163 1131 283 q 803 42 936 42 q 721 135 740 42 q 519 42 617 42 q 409 99 447 42 q 371 265 371 157 q 444 549 371 442 q 640 657 518 657 q 876 625 761 657 q 817 197 817 372 q 857 126 817 126 q 970 226 918 126 q 1022 443 1022 326 q 938 712 1022 625 q 676 799 854 799 q 337 655 454 799 q 219 240 219 511 q 506 -101 219 -101 q 774 -47 615 -101 m 758 558 q 632 588 700 588 q 521 500 564 588 q 478 275 478 413 q 567 138 478 138 q 642 158 600 138 q 718 213 685 179 q 758 558 724 254 z "},"A":{"ha":781,"x_min":19,"x_max":758,"o":"m 550 247 q 380 251 482 251 q 207 246 278 251 q 146 -14 165 74 q 97 -17 121 -17 q 19 -3 72 -17 q 283 888 246 600 q 389 901 324 901 q 494 888 454 901 q 758 -3 532 600 q 670 -17 708 -17 q 611 -14 632 -17 q 550 247 588 90 m 231 343 q 365 342 294 342 q 525 344 436 342 q 388 803 463 588 l 379 803 q 231 343 297 597 z "},"B":{"ha":799,"x_min":139,"x_max":743,"o":"m 143 18 q 163 459 163 181 q 139 871 163 738 q 397 910 249 910 q 614 843 544 910 q 683 648 683 776 q 594 453 683 519 q 743 240 743 394 q 425 -21 743 -21 q 143 18 257 -21 m 347 517 q 441 496 378 496 q 533 540 504 496 q 563 656 563 583 q 523 779 563 728 q 392 831 483 831 q 278 806 340 831 q 267 474 267 693 q 278 107 267 254 q 426 75 358 75 q 622 240 622 75 q 493 410 622 381 q 414 403 456 403 q 318 424 372 403 q 347 517 318 488 z "},"C":{"ha":744,"x_min":76,"x_max":696,"o":"m 421 910 q 628 841 560 910 q 696 664 696 772 q 692 629 696 646 q 634 617 668 617 q 567 619 600 617 q 568 649 568 631 q 529 779 568 731 q 421 828 490 828 q 190 455 190 828 q 421 82 190 82 q 533 108 475 82 q 632 181 592 135 q 688 71 675 146 q 421 -21 564 -21 q 169 72 253 -21 q 83 306 100 149 q 76 454 76 369 q 421 910 76 910 z "},"D":{"ha":843,"x_min":139,"x_max":781,"o":"m 415 910 q 592 872 518 910 q 706 767 665 833 q 781 451 781 638 q 678 78 781 193 q 571 7 638 35 q 415 -21 504 -21 q 143 18 247 -21 q 163 459 163 181 q 139 871 163 738 q 415 910 258 910 m 415 78 q 661 451 661 78 q 639 639 661 558 q 560 774 617 719 q 423 828 503 828 q 276 801 343 828 q 267 462 267 690 q 278 107 267 233 q 415 78 343 78 z "},"E":{"ha":721,"x_min":131,"x_max":643,"o":"m 271 106 q 439 101 319 101 q 632 114 558 101 q 643 44 643 78 q 638 -15 643 10 q 526 -2 611 -8 q 336 4 442 4 q 138 -6 231 4 q 157 460 157 186 q 131 897 157 733 q 331 888 224 888 q 522 894 438 888 q 631 907 606 900 q 636 851 636 882 q 625 785 636 821 q 435 797 551 797 q 269 793 318 797 q 261 507 261 714 q 401 506 290 506 q 582 521 513 506 q 589 448 589 476 q 588 401 589 419 q 422 413 522 413 q 261 410 322 413 q 271 106 261 228 z "},"F":{"ha":663,"x_min":131,"x_max":622,"o":"m 571 393 q 399 403 511 403 q 261 401 286 403 q 285 3 264 65 q 212 -11 239 -11 q 138 -8 185 -11 q 157 444 157 154 q 131 897 157 733 q 324 888 224 888 q 508 894 424 888 q 617 907 592 900 q 622 851 622 882 q 611 785 622 821 q 428 797 538 797 q 269 793 318 797 q 261 488 261 710 l 322 488 q 565 501 510 488 q 572 436 572 463 q 571 393 572 410 z "},"G":{"ha":792,"x_min":76,"x_max":715,"o":"m 421 -21 q 136 125 207 -21 q 89 273 101 197 q 76 440 76 349 q 87 597 76 532 q 122 722 97 663 q 186 822 147 781 q 415 910 269 910 q 628 841 560 910 q 696 664 696 772 q 692 629 696 647 q 619 617 656 617 q 567 619 583 617 q 568 649 568 631 q 529 779 568 731 q 421 828 490 828 q 246 726 301 828 q 190 453 190 625 q 303 113 190 185 q 421 82 351 82 q 611 146 535 82 q 601 336 610 257 q 378 321 440 333 q 371 394 371 365 q 372 440 371 422 q 548 429 438 429 q 715 433 658 429 q 701 71 701 294 q 421 -21 578 -21 z "},"H":{"ha":899,"x_min":129,"x_max":767,"o":"m 639 390 q 438 400 550 400 q 257 390 325 400 q 281 3 260 65 q 208 -11 235 -11 q 133 -8 181 -11 q 153 454 153 154 q 129 888 153 754 q 201 901 165 901 q 276 899 238 901 q 257 499 257 743 q 438 490 332 490 q 639 501 543 490 q 615 888 636 767 q 688 901 651 901 q 763 899 724 901 q 743 411 743 744 q 767 3 743 78 q 694 -11 721 -11 q 619 -8 667 -11 q 639 390 636 132 z "},"I":{"ha":440,"x_min":143,"x_max":294,"o":"m 147 -8 q 167 454 167 154 q 143 888 167 754 q 215 901 179 901 q 290 899 251 901 q 271 411 271 744 q 294 3 271 78 q 210 -11 249 -11 q 147 -8 171 -11 z "},"J":{"ha":393,"x_min":-161,"x_max":274,"o":"m 31 -147 q 113 -106 89 -147 q 144 -4 140 -57 q 150 168 150 64 q 126 888 150 754 q 199 901 163 901 q 274 899 235 901 q 254 142 254 744 q 237 -87 254 -18 q 194 -186 219 -156 q 33 -250 143 -250 q -68 -233 -14 -250 q -161 -186 -122 -215 q -142 -125 -156 -153 q -117 -86 -128 -97 l -106 -76 q 31 -147 -53 -147 z "},"K":{"ha":742,"x_min":129,"x_max":736,"o":"m 579 900 q 621 901 589 901 q 699 878 653 901 q 403 471 515 644 q 736 7 536 257 q 642 -17 689 -17 q 581 -15 596 -17 q 419 247 522 89 q 290 443 315 404 q 383 581 317 485 q 579 900 526 786 m 133 -8 q 153 454 153 154 q 129 888 153 754 q 200 901 165 901 q 250 900 235 901 q 276 899 265 899 q 257 411 257 744 q 281 3 257 78 q 196 -11 235 -11 q 133 -8 157 -11 z "},"L":{"ha":615,"x_min":131,"x_max":599,"o":"m 135 -6 q 154 470 154 186 q 131 888 154 754 q 203 901 167 901 q 278 899 239 901 q 258 484 258 744 q 268 106 258 224 q 415 101 317 101 q 588 114 514 101 q 599 44 599 78 q 593 -15 599 10 q 482 -2 567 -8 q 313 4 397 4 q 135 -6 228 4 z "},"M":{"ha":1067,"x_min":129,"x_max":933,"o":"m 133 -8 q 153 454 153 154 q 129 888 153 754 q 191 901 165 901 q 256 899 217 901 q 536 292 279 771 q 782 888 746 701 q 854 901 818 901 q 929 899 890 901 q 910 411 910 744 q 933 3 910 78 q 860 -11 888 -11 q 786 -8 833 -11 q 806 369 806 154 q 803 647 806 585 q 574 163 621 279 q 514 151 536 151 q 472 153 492 151 q 384 344 432 256 q 294 510 336 433 q 236 615 251 586 l 236 469 q 260 3 236 78 q 199 -11 218 -11 q 133 -8 181 -11 z "},"N":{"ha":903,"x_min":131,"x_max":782,"o":"m 135 -8 q 154 454 154 154 q 131 888 154 754 q 192 901 167 901 q 257 899 218 901 q 409 595 283 799 q 671 201 535 392 q 675 426 675 318 q 651 888 675 754 q 713 901 688 901 q 778 899 739 901 q 758 411 758 744 q 782 3 758 78 q 722 -11 740 -11 q 656 -8 703 -11 q 574 148 646 35 q 394 418 501 261 q 239 653 286 575 q 238 469 238 593 q 261 3 238 78 q 201 -11 219 -11 q 135 -8 182 -11 z "},"O":{"ha":835,"x_min":76,"x_max":758,"o":"m 76 454 q 417 910 76 910 q 758 454 758 910 q 752 308 758 371 q 724 181 746 246 q 667 74 703 115 q 567 6 631 32 q 417 -21 504 -21 q 267 6 331 -21 q 168 74 204 32 q 110 181 132 115 q 83 308 89 246 q 76 454 76 371 m 300 113 q 417 82 347 82 q 535 113 488 82 q 607 200 583 143 q 649 453 649 299 q 417 828 649 828 q 186 453 186 828 q 300 113 186 185 z "},"P":{"ha":738,"x_min":138,"x_max":710,"o":"m 346 460 q 442 419 386 419 q 533 454 499 419 q 589 624 589 511 q 406 831 589 831 q 275 800 347 831 q 265 384 265 690 q 289 3 265 78 q 204 -11 243 -11 q 142 -8 165 -11 q 161 446 161 154 q 138 871 161 738 q 413 910 254 910 q 640 835 571 910 q 710 627 710 761 q 640 410 710 493 q 426 326 569 326 q 317 347 371 326 q 326 417 317 385 q 346 460 336 449 z "},"Q":{"ha":835,"x_min":76,"x_max":758,"o":"m 76 454 q 417 910 76 910 q 758 454 758 910 q 749 290 758 360 q 714 153 740 221 q 501 -14 663 14 q 644 -201 611 -158 q 551 -225 597 -225 q 490 -224 506 -225 q 369 -18 451 -142 q 156 89 226 -4 q 82 315 96 169 q 76 454 76 375 m 300 113 q 417 82 347 82 q 535 113 488 82 q 607 200 583 143 q 649 453 649 299 q 417 828 649 828 q 186 453 186 828 q 300 113 186 185 z "},"R":{"ha":783,"x_min":138,"x_max":747,"o":"m 346 485 q 442 447 386 447 q 533 481 499 447 q 589 638 589 533 q 406 831 589 831 q 275 803 347 831 q 265 385 265 692 q 289 3 265 78 q 204 -11 243 -11 q 142 -8 165 -11 q 161 446 161 154 q 138 871 161 738 q 407 910 254 910 q 710 638 710 910 q 658 461 710 535 q 503 368 607 388 q 747 7 650 133 q 654 -17 700 -17 q 593 -15 608 -17 q 376 365 519 140 q 317 381 349 369 q 326 445 317 415 q 346 485 336 475 z "},"S":{"ha":663,"x_min":67,"x_max":632,"o":"m 136 194 q 238 102 178 136 q 369 68 299 68 q 477 107 440 68 q 514 201 514 146 q 469 301 514 257 q 362 378 425 346 q 236 445 299 410 q 129 540 174 481 q 85 690 85 600 q 149 845 85 781 q 351 910 214 910 q 553 842 489 910 q 618 664 618 774 q 614 629 618 647 q 542 617 578 617 q 489 619 506 617 q 490 649 490 631 q 448 778 490 729 q 342 828 406 828 q 241 794 278 828 q 204 698 204 760 q 248 591 204 636 q 355 513 292 546 q 481 442 418 479 q 588 344 544 406 q 632 191 632 282 q 558 40 632 100 q 375 -21 483 -21 q 67 85 179 -21 q 90 146 72 118 q 122 183 107 174 l 136 194 z "},"T":{"ha":668,"x_min":17,"x_max":646,"o":"m 389 797 q 382 383 382 689 q 406 3 382 78 q 321 -11 360 -11 q 258 -8 282 -11 q 278 417 278 154 q 268 797 278 681 q 22 778 78 789 q 17 831 17 797 q 28 900 17 864 q 276 888 131 888 q 640 907 571 888 q 646 851 646 882 q 635 785 646 821 q 389 797 528 794 z "},"U":{"ha":894,"x_min":119,"x_max":778,"o":"m 758 385 q 753 245 758 301 q 728 135 747 189 q 676 49 710 81 q 451 -21 604 -21 q 194 89 256 -21 q 153 214 164 147 q 143 385 143 281 q 119 888 143 754 q 192 901 156 901 q 267 899 228 901 q 247 383 247 744 q 290 155 247 228 q 461 82 333 82 q 630 155 589 82 q 671 383 671 228 q 647 888 671 754 q 711 901 683 901 q 778 899 739 901 q 758 385 758 744 z "},"V":{"ha":792,"x_min":29,"x_max":760,"o":"m 468 0 q 377 -12 418 -12 q 324 -11 336 -12 q 178 465 265 197 q 29 874 92 732 q 132 901 88 901 q 192 900 176 901 q 274 518 211 751 q 403 121 336 285 l 411 121 q 537 522 471 268 q 608 892 603 776 q 647 896 628 896 q 760 868 715 896 q 612 456 721 774 q 468 0 503 139 z "},"W":{"ha":1131,"x_min":29,"x_max":1099,"o":"m 426 0 q 335 -12 376 -12 q 282 -11 294 -12 q 214 250 265 47 q 29 874 97 721 q 132 901 88 901 q 192 900 176 901 q 361 121 256 413 l 369 121 q 452 413 413 226 q 513 764 492 600 q 581 781 554 781 q 631 778 608 781 q 783 121 693 356 l 792 121 q 893 519 846 275 q 947 892 940 763 q 986 896 967 896 q 1099 868 1054 896 q 983 488 1074 806 q 849 0 892 169 q 758 -12 799 -12 q 704 -11 717 -12 q 638 240 685 56 q 569 510 592 425 l 563 510 q 426 0 469 172 z "},"X":{"ha":746,"x_min":26,"x_max":715,"o":"m 553 900 q 607 901 564 901 q 701 878 650 901 q 438 460 542 653 q 715 13 576 214 q 601 -11 675 -11 q 558 -10 574 -11 q 363 367 451 207 q 175 -10 238 158 q 121 -11 164 -11 q 26 13 78 -11 q 310 458 204 264 q 51 878 174 696 q 145 901 99 901 q 207 900 192 901 q 389 547 290 728 q 553 900 471 679 z "},"Y":{"ha":647,"x_min":1,"x_max":646,"o":"m 1 881 q 102 904 57 904 q 163 903 147 904 q 228 664 171 799 q 287 532 250 614 q 342 407 324 450 l 347 407 q 445 652 396 500 q 500 901 494 804 q 538 904 525 904 q 646 881 603 904 q 599 778 644 876 q 519 603 554 681 q 390 269 415 369 q 413 3 397 43 q 328 -11 367 -11 q 265 -8 289 -11 q 283 274 279 106 q 190 503 251 375 q 73 740 128 632 q 1 881 18 847 z "},"Z":{"ha":675,"x_min":42,"x_max":633,"o":"m 375 796 q 75 768 179 796 q 63 835 63 810 q 71 897 63 860 q 347 888 143 888 q 626 896 551 888 q 633 843 633 882 q 411 444 574 731 q 219 106 249 158 q 414 101 283 101 q 618 114 544 101 q 629 44 629 78 q 624 -15 629 10 q 486 -2 599 -8 q 259 4 374 4 q 51 -6 144 4 q 42 44 43 15 q 260 413 100 136 q 486 796 421 690 l 375 796 z "},"[":{"ha":457,"x_min":104,"x_max":429,"o":"m 418 22 q 429 -44 429 -14 q 424 -100 429 -75 q 265 -83 360 -83 q 104 -90 171 -83 q 126 482 126 96 q 104 1006 126 868 q 265 999 171 999 q 424 1015 360 999 q 429 960 429 990 q 418 893 429 929 q 243 904 353 904 q 235 455 235 817 q 243 11 235 93 q 418 22 353 11 z "},"\\":{"ha":786,"x_min":133,"x_max":674,"o":"m 133 931 q 210 956 174 956 q 260 954 247 956 q 674 -37 463 389 q 582 -64 636 -64 q 547 -61 572 -64 q 133 931 339 525 z "},"]":{"ha":457,"x_min":28,"x_max":353,"o":"m 39 893 q 28 960 28 929 q 33 1015 28 990 q 192 999 97 999 q 353 1006 286 999 q 331 433 331 819 q 353 -90 331 47 q 192 -83 286 -83 q 33 -100 97 -83 q 28 -44 28 -75 q 39 22 28 -14 q 214 11 104 11 q 222 460 222 99 q 214 904 222 822 q 39 893 104 904 z "},"^":{"ha":835,"x_min":111,"x_max":642,"o":"m 318 864 q 376 872 335 872 q 435 864 417 872 q 549 629 467 782 q 642 457 617 492 q 603 433 632 449 q 553 415 574 418 q 476 576 514 510 q 376 760 396 728 q 200 415 271 581 q 150 433 179 418 q 111 457 121 449 q 204 629 139 499 q 318 864 286 782 z "},"_":{"ha":697,"x_min":28,"x_max":669,"o":"m 658 -124 q 384 -111 522 -111 q 153 -118 246 -111 q 33 -131 60 -125 q 28 -78 28 -111 q 39 -8 28 -44 q 282 -21 142 -21 q 531 -15 422 -21 q 664 -1 639 -8 q 669 -57 669 -26 q 658 -124 669 -87 z "},"`":{"ha":589,"x_min":153,"x_max":436,"o":"m 408 733 q 153 838 236 804 q 167 899 154 876 q 208 947 179 922 q 341 848 272 893 q 436 785 410 803 q 408 733 429 756 z "},"a":{"ha":657,"x_min":69,"x_max":557,"o":"m 290 304 q 209 277 240 304 q 178 193 178 250 q 276 79 178 79 q 356 99 315 79 q 418 144 396 118 q 425 256 425 232 q 290 304 368 304 m 539 479 l 533 279 q 557 4 533 164 q 485 -8 515 -8 q 426 -6 454 -8 l 422 61 q 235 -21 317 -21 q 112 31 154 -21 q 69 180 69 83 q 133 326 69 276 q 282 376 196 376 q 431 343 368 376 q 432 404 432 371 q 430 463 432 438 q 417 521 428 488 q 315 586 397 586 q 213 474 213 586 l 214 450 q 157 447 183 447 q 94 458 131 447 q 92 490 92 481 q 156 621 92 578 q 322 664 219 664 q 481 617 424 664 q 539 479 539 571 z "},"b":{"ha":668,"x_min":75,"x_max":599,"o":"m 79 15 q 100 437 100 204 q 95 763 100 669 q 75 933 90 856 q 147 947 111 947 q 222 944 183 947 q 201 569 201 767 q 397 664 299 664 q 547 585 494 664 q 599 358 599 506 q 531 71 599 163 q 319 -21 464 -21 q 79 15 229 -21 m 481 376 q 363 575 481 575 q 201 485 281 575 l 201 111 q 336 79 267 79 q 481 376 481 79 z "},"c":{"ha":597,"x_min":63,"x_max":542,"o":"m 318 664 q 470 619 407 664 q 533 490 533 575 q 531 458 533 481 q 468 447 494 447 q 411 450 442 447 q 413 476 413 460 q 385 554 413 522 q 308 586 358 586 q 176 333 176 586 q 321 79 176 79 q 490 165 390 79 q 542 56 531 124 q 311 -21 426 -21 q 117 74 171 -21 q 63 326 63 169 q 122 573 63 482 q 318 664 182 664 z "},"d":{"ha":693,"x_min":69,"x_max":596,"o":"m 469 542 q 331 582 382 582 q 251 556 281 582 q 208 483 221 529 q 188 306 188 406 q 306 86 188 86 q 392 110 347 86 q 467 169 436 135 q 469 542 469 285 m 592 944 q 571 513 571 765 q 575 189 571 260 q 596 10 579 118 q 513 -4 553 -4 q 460 -3 472 -4 l 463 69 q 265 -21 367 -21 q 165 12 206 -21 q 104 99 124 44 q 69 313 69 196 q 325 664 69 664 q 468 631 394 664 q 444 933 465 819 q 549 947 475 947 q 572 946 557 947 q 592 944 586 944 z "},"e":{"ha":626,"x_min":63,"x_max":557,"o":"m 539 342 q 331 308 435 308 q 176 315 228 308 q 217 133 176 190 q 333 79 254 79 q 506 165 413 79 q 557 56 546 124 q 322 -21 444 -21 q 119 74 176 -21 q 63 326 63 169 q 126 574 63 483 q 332 664 189 664 q 492 603 432 664 q 553 460 553 543 q 539 342 554 378 m 322 586 q 178 396 194 586 q 313 389 238 389 q 432 403 389 389 q 438 454 438 453 q 410 547 438 508 q 322 586 382 586 z "},"f":{"ha":460,"x_min":47,"x_max":465,"o":"m 139 289 l 135 567 q 56 565 79 567 q 47 609 47 588 q 50 642 47 631 l 131 642 q 129 697 129 660 q 322 938 129 938 q 465 894 403 938 q 419 779 465 815 q 317 854 376 854 q 231 689 231 854 q 232 643 231 658 q 406 651 349 646 q 414 612 414 633 q 408 560 414 590 q 239 565 356 563 l 239 435 l 240 329 q 265 8 240 136 q 181 -6 218 -6 q 118 0 143 -6 q 139 289 139 215 z "},"g":{"ha":647,"x_min":35,"x_max":596,"o":"m 306 664 q 426 642 375 664 l 426 664 q 449 747 426 719 q 529 775 472 775 q 564 772 539 775 q 567 727 567 750 q 558 660 567 704 q 528 661 549 661 q 497 648 507 661 q 486 604 488 635 l 481 606 q 540 428 540 546 q 497 247 540 319 q 306 167 449 167 q 208 181 246 167 q 165 68 179 129 q 215 64 189 64 q 321 74 242 64 q 435 83 400 83 q 551 47 507 83 q 596 -64 596 11 q 547 -194 596 -139 q 283 -292 463 -292 q 99 -261 163 -292 q 35 -147 35 -231 q 38 -110 35 -125 q 98 -99 67 -99 q 165 -104 129 -99 q 163 -141 163 -115 q 194 -191 163 -167 q 303 -215 226 -215 q 434 -185 379 -215 q 489 -93 489 -154 q 415 -25 489 -25 q 301 -34 379 -25 q 178 -43 224 -43 q 103 -24 133 -43 q 74 33 74 -6 q 144 214 74 107 q 71 428 71 274 q 306 664 71 664 m 183 426 q 183 344 183 426 q 306 263 183 263 q 428 426 428 263 q 306 590 428 590 q 183 426 183 590 z "},"h":{"ha":740,"x_min":114,"x_max":642,"o":"m 615 464 l 614 351 q 642 13 614 169 q 552 -6 596 -6 q 492 -3 508 -6 q 508 331 508 186 q 485 525 508 475 q 407 575 463 575 q 240 483 332 575 q 265 8 240 90 q 192 -6 219 -6 q 118 -3 165 -6 q 139 426 139 178 q 135 754 139 674 q 114 933 131 835 q 186 947 150 947 q 261 944 222 947 q 240 565 240 778 q 340 637 282 610 q 450 664 399 664 q 575 615 535 664 q 615 464 615 567 z "},"i":{"ha":365,"x_min":108,"x_max":267,"o":"m 240 356 q 265 8 240 128 q 175 -6 215 -6 q 118 -3 135 -6 q 139 344 139 186 q 114 636 139 501 q 199 650 161 650 q 261 644 236 650 q 240 356 240 429 m 267 851 q 178 765 267 765 q 108 836 108 765 q 197 924 108 924 q 267 851 267 924 z "},"j":{"ha":353,"x_min":-83,"x_max":269,"o":"m 243 356 l 247 -18 q 60 -292 247 -292 q -83 -247 -21 -292 q -37 -132 -83 -168 q 7 -172 -22 -154 q 64 -189 36 -189 q 142 6 142 -189 l 142 315 q 117 636 142 508 q 201 650 164 650 q 264 644 239 650 q 243 356 243 429 m 269 851 q 181 765 269 765 q 111 836 111 765 q 200 924 111 924 q 269 851 269 924 z "},"k":{"ha":661,"x_min":104,"x_max":633,"o":"m 108 -3 q 129 426 129 178 q 125 754 129 674 q 104 933 121 835 q 176 947 140 947 q 251 944 213 947 q 231 433 231 774 q 256 8 231 93 q 183 -6 210 -6 q 108 -3 156 -6 m 460 649 q 513 651 472 651 q 603 629 554 651 q 494 496 583 596 q 372 356 406 396 q 633 22 532 126 q 465 -12 564 -12 q 389 144 432 78 q 253 315 346 211 l 257 329 q 381 496 313 396 q 460 649 450 596 z "},"l":{"ha":351,"x_min":104,"x_max":256,"o":"m 108 -3 q 129 426 129 178 q 125 754 129 674 q 104 933 121 835 q 176 947 140 947 q 251 944 213 947 q 231 433 231 774 q 256 8 231 93 q 171 -6 210 -6 q 108 -3 132 -6 z "},"m":{"ha":1060,"x_min":111,"x_max":960,"o":"m 933 465 l 932 351 q 960 13 932 172 q 870 -6 914 -6 q 810 -3 826 -6 q 826 323 826 182 q 808 519 826 464 q 729 575 790 575 q 588 483 668 575 l 586 351 q 614 13 586 172 q 524 -6 568 -6 q 464 -3 481 -6 q 481 323 481 182 q 463 519 481 464 q 383 575 444 575 q 243 486 322 575 q 240 356 240 443 q 265 8 240 128 q 175 -6 215 -6 q 118 -3 135 -6 q 139 328 139 186 q 111 636 139 469 q 199 650 167 650 q 249 644 231 650 l 249 574 q 338 639 288 614 q 436 664 389 664 q 579 557 551 664 q 677 635 621 606 q 782 664 733 664 q 897 615 861 664 q 933 465 933 565 z "},"n":{"ha":740,"x_min":111,"x_max":642,"o":"m 615 464 l 614 351 q 642 13 614 172 q 552 -6 596 -6 q 492 -3 508 -6 q 508 323 508 182 q 488 519 508 464 q 400 575 468 575 q 243 486 332 575 q 240 356 240 443 q 265 8 240 128 q 175 -6 215 -6 q 118 -3 135 -6 q 139 328 139 186 q 111 636 139 469 q 199 650 167 650 q 249 644 231 650 l 249 574 q 440 664 344 664 q 576 615 536 664 q 615 464 615 565 z "},"o":{"ha":647,"x_min":63,"x_max":585,"o":"m 63 329 q 324 664 63 664 q 585 329 585 664 q 536 85 585 175 q 324 -21 481 -21 q 111 85 167 -21 q 63 329 63 175 m 176 333 q 176 206 176 333 q 324 79 176 79 q 471 333 471 79 q 324 586 471 586 q 176 333 176 586 z "},"p":{"ha":689,"x_min":93,"x_max":619,"o":"m 350 79 q 501 349 501 79 q 447 556 501 513 q 382 575 422 575 q 297 549 342 575 q 222 485 253 522 q 219 111 219 369 q 350 79 300 79 m 118 246 q 93 633 118 476 q 176 647 136 647 q 229 646 217 647 l 226 574 q 424 664 322 664 q 619 331 619 664 q 569 99 619 203 q 486 11 542 43 q 363 -21 431 -21 q 221 13 294 -21 q 244 -278 226 -192 q 168 -292 214 -292 q 97 -289 122 -292 q 118 246 118 -162 z "},"q":{"ha":692,"x_min":69,"x_max":593,"o":"m 589 628 q 568 213 568 449 q 572 -103 568 -24 q 593 -278 576 -182 q 511 -292 557 -292 q 446 -289 465 -292 q 467 74 467 -118 q 271 -21 368 -21 q 122 58 174 -21 q 69 285 69 138 q 137 572 69 481 q 349 664 204 664 q 589 628 439 664 m 188 278 q 306 79 188 79 q 467 169 386 79 l 467 554 q 333 586 406 586 q 224 513 261 586 q 188 278 188 440 z "},"r":{"ha":482,"x_min":83,"x_max":475,"o":"m 221 572 q 296 633 253 608 q 381 657 339 657 q 449 611 422 657 q 475 500 475 565 q 472 460 475 476 q 422 447 447 447 q 360 453 396 447 q 363 482 363 475 q 307 558 363 558 q 265 539 292 558 q 215 490 239 519 q 213 356 213 446 q 238 8 213 128 q 153 -6 188 -6 q 90 -3 118 -6 q 111 328 111 186 q 83 636 111 469 q 171 650 139 650 q 221 644 203 650 l 221 572 z "},"s":{"ha":560,"x_min":44,"x_max":501,"o":"m 501 175 q 438 28 501 76 q 278 -21 374 -21 q 44 56 144 -21 q 66 116 50 86 q 94 161 82 146 l 108 175 q 281 72 181 72 q 360 93 329 72 q 392 151 392 114 q 358 217 392 188 q 275 266 324 246 q 178 309 226 286 q 95 375 129 332 q 61 478 61 418 q 117 614 61 564 q 284 664 172 664 q 445 615 396 664 q 494 463 494 567 q 438 451 464 451 q 372 460 411 451 q 375 490 375 479 q 350 562 375 533 q 278 590 325 590 q 201 569 232 590 q 171 503 171 547 q 205 428 171 460 q 288 376 239 396 q 385 334 336 356 q 467 273 433 313 q 501 175 501 233 z "},"t":{"ha":426,"x_min":14,"x_max":419,"o":"m 104 225 q 107 535 104 225 q 106 567 107 556 q 22 565 47 567 q 14 609 14 588 q 17 642 14 631 l 101 642 l 94 744 q 167 756 129 756 q 231 750 206 756 l 218 643 q 372 651 294 644 q 381 612 381 633 q 375 560 381 590 q 213 565 324 563 q 210 483 210 538 l 210 201 q 213 142 210 165 q 231 101 217 119 q 274 82 246 82 q 390 125 335 82 q 419 13 419 83 q 287 -21 343 -21 q 197 -6 231 -21 q 146 28 164 8 q 118 85 128 49 q 104 225 104 136 z "},"u":{"ha":697,"x_min":90,"x_max":597,"o":"m 114 179 l 115 292 q 90 636 115 504 q 161 649 122 649 q 238 644 200 649 q 217 321 217 454 q 235 133 217 188 q 319 79 254 79 q 468 164 383 79 q 471 288 471 206 q 446 636 471 517 q 533 650 499 650 q 593 644 568 650 q 572 305 572 456 q 597 4 572 154 q 525 -8 556 -8 q 467 -6 494 -8 l 464 63 q 274 -21 361 -21 q 151 28 188 -21 q 114 179 114 78 z "},"v":{"ha":629,"x_min":13,"x_max":601,"o":"m 360 0 q 295 -10 324 -10 q 257 -8 267 -10 q 149 308 221 119 q 13 628 78 496 q 113 651 68 651 q 174 650 158 651 q 311 154 188 451 l 317 154 q 406 394 363 242 q 456 649 450 547 q 493 651 481 651 q 601 628 558 651 q 469 309 551 517 q 360 0 386 101 z "},"w":{"ha":897,"x_min":17,"x_max":864,"o":"m 718 649 q 768 650 718 649 q 864 628 817 650 q 743 313 821 522 q 639 0 665 103 q 574 -10 603 -10 q 536 -8 546 -10 q 444 390 521 100 l 439 390 q 325 0 360 151 q 260 -10 289 -10 q 222 -8 232 -10 q 135 306 196 118 q 17 628 75 494 q 117 651 72 651 q 178 650 163 651 q 282 154 188 478 l 288 154 q 350 352 318 224 q 390 569 382 481 q 462 579 432 579 q 517 575 492 579 q 596 154 544 347 l 601 154 q 678 393 642 240 q 718 649 714 546 z "},"x":{"ha":571,"x_min":21,"x_max":556,"o":"m 442 -14 q 406 -12 418 -14 q 278 243 351 117 q 188 83 208 124 q 163 -11 168 43 q 122 -14 144 -14 q 21 15 68 -14 q 235 317 78 107 q 144 458 211 353 q 38 622 78 564 q 151 651 78 651 q 188 650 175 651 q 300 413 225 565 q 358 522 329 461 q 392 649 386 582 q 445 651 404 651 q 535 629 486 651 q 344 331 476 529 q 432 197 356 314 q 556 15 508 79 q 442 -14 514 -14 z "},"y":{"ha":613,"x_min":-24,"x_max":606,"o":"m 350 -25 q 328 -90 350 -25 q 251 -223 307 -154 q 119 -292 196 -292 q -24 -247 43 -292 q 22 -132 -18 -167 q 124 -189 64 -189 q 196 -135 156 -189 q 261 -8 236 -81 q 153 308 225 119 q 17 628 82 496 q 117 651 72 651 q 178 650 163 651 q 315 154 192 451 l 321 154 q 410 394 367 242 q 460 649 454 547 q 497 651 485 651 q 606 628 563 651 q 482 327 571 550 q 350 -25 393 104 z "},"z":{"ha":590,"x_min":56,"x_max":542,"o":"m 311 551 q 89 525 188 551 q 76 592 76 567 q 85 654 76 617 q 308 644 157 644 q 535 653 460 644 q 542 600 542 639 q 379 334 485 493 q 232 103 274 175 l 293 103 q 524 129 443 106 q 538 54 538 86 q 531 -10 538 22 q 294 3 411 3 q 65 -6 178 3 q 56 44 57 15 q 235 308 115 138 q 406 551 356 478 l 311 551 z "},"{":{"ha":478,"x_min":42,"x_max":450,"o":"m 247 817 l 264 610 q 240 512 264 556 q 175 463 217 468 l 175 454 q 240 405 217 449 q 264 307 264 361 l 247 100 q 263 28 247 47 q 324 8 278 8 q 439 24 369 8 q 450 -43 450 -12 q 444 -99 450 -74 q 290 -82 381 -82 q 167 -41 199 -82 q 136 74 136 0 l 151 285 q 131 378 151 343 q 51 421 110 413 q 42 458 42 435 q 51 496 42 482 q 131 539 110 504 q 151 632 151 574 l 136 843 q 167 958 136 917 q 290 999 199 999 q 444 1015 381 999 q 450 960 450 990 q 439 893 450 929 q 324 908 369 908 q 263 889 278 908 q 247 817 247 869 z "},"|":{"ha":365,"x_min":125,"x_max":240,"o":"m 129 -118 q 143 456 143 78 q 125 996 143 833 q 185 1013 161 1013 q 236 1008 208 1013 q 222 399 222 818 q 240 -106 222 -19 q 175 -122 200 -122 q 129 -118 150 -122 z "},"}":{"ha":478,"x_min":28,"x_max":436,"o":"m 231 100 l 214 307 q 238 405 214 361 q 303 454 261 449 l 303 463 q 238 512 261 468 q 214 610 214 556 l 231 817 q 215 889 231 869 q 154 908 200 908 q 39 893 108 908 q 28 960 28 929 q 33 1015 28 990 q 188 999 97 999 q 310 958 279 999 q 342 843 342 917 l 326 632 q 347 539 326 574 q 426 496 368 504 q 436 458 436 482 q 426 421 436 435 q 347 378 368 413 q 326 285 326 343 l 342 74 q 310 -41 342 0 q 188 -82 279 -82 q 33 -99 97 -82 q 28 -43 28 -74 q 39 24 28 -12 q 154 8 108 8 q 215 28 200 8 q 231 100 231 47 z "},"~":{"ha":835,"x_min":117,"x_max":719,"o":"m 697 400 q 600 446 663 446 q 418 406 538 446 q 233 367 299 367 q 117 404 167 367 q 136 510 117 458 q 234 464 171 464 q 417 503 297 464 q 603 543 538 543 q 719 506 669 543 q 697 400 719 458 z "},"¡":{"ha":375,"x_min":69,"x_max":250,"o":"m 207 122 q 243 -278 207 -133 q 163 -293 201 -293 q 90 -285 124 -293 q 118 303 118 -22 q 115 393 118 349 q 163 401 143 401 q 210 393 183 401 q 207 122 207 246 m 69 567 q 94 636 69 608 q 171 664 119 664 q 250 583 250 664 q 149 483 250 483 q 69 567 69 483 z "},"¢":{"ha":653,"x_min":56,"x_max":597,"o":"m 364 296 l 364 189 q 546 275 468 193 q 597 165 586 233 q 368 89 494 89 q 375 7 371 21 q 303 -11 338 -11 q 249 -7 269 -11 l 260 101 q 56 432 56 154 q 111 649 56 560 q 285 764 167 739 q 276 878 281 831 q 363 896 307 896 q 403 892 375 896 q 389 774 399 868 q 531 725 472 769 q 589 600 589 681 q 586 568 589 590 q 520 557 550 557 q 460 560 490 557 q 461 599 461 569 q 442 659 461 629 q 381 694 422 689 q 364 296 364 521 m 169 432 q 268 208 169 261 q 289 632 289 443 l 289 681 q 199 587 228 654 q 169 432 169 519 z "},"£":{"ha":758,"x_min":76,"x_max":686,"o":"m 189 299 q 185 382 189 340 l 88 382 q 76 424 76 404 q 81 460 76 443 l 176 460 q 156 682 156 626 q 226 863 156 801 q 417 925 297 925 q 671 686 671 925 q 667 651 671 669 q 603 639 636 639 q 556 642 569 639 q 557 671 557 653 q 526 796 557 756 q 417 836 494 836 q 308 789 339 836 q 278 681 278 742 q 290 460 278 619 q 543 471 439 463 q 553 423 553 451 q 547 374 553 394 q 296 381 408 381 q 299 268 299 331 q 281 93 299 206 l 413 93 q 557 99 458 93 q 681 113 656 106 q 686 57 686 88 q 675 -10 686 26 q 455 3 572 3 q 226 -3 338 3 q 90 -17 115 -10 q 85 32 85 8 l 160 100 q 189 299 189 188 z "},"¥":{"ha":686,"x_min":24,"x_max":668,"o":"m 186 557 l 24 881 q 124 904 79 904 q 185 903 169 904 q 250 664 193 799 q 309 532 272 614 q 364 407 346 450 l 369 407 q 467 652 418 500 q 522 901 517 804 q 560 904 547 904 q 668 881 625 904 q 639 814 664 869 q 524 563 565 658 q 626 568 592 565 q 636 520 636 549 q 631 471 636 492 q 488 476 586 474 q 439 351 461 413 q 535 350 472 350 q 625 351 597 350 q 636 310 636 329 q 632 274 636 290 q 414 272 492 274 q 435 3 414 97 q 350 -11 389 -11 q 288 -8 311 -11 q 306 271 301 104 q 86 263 175 268 q 76 310 76 282 q 82 360 76 339 q 276 353 185 354 q 222 479 254 410 l 88 479 q 76 521 76 501 q 81 557 76 540 l 186 557 z "},"¦":{"ha":365,"x_min":125,"x_max":240,"o":"m 240 -106 q 174 -122 197 -122 q 129 -118 150 -122 q 143 349 143 78 q 197 358 181 358 q 222 357 214 358 q 240 -106 222 -19 m 125 996 q 188 1013 160 1013 q 236 1008 215 1013 q 222 542 222 813 q 167 532 185 532 q 143 533 150 532 q 125 996 143 910 z "},"§":{"ha":667,"x_min":49,"x_max":618,"o":"m 67 342 q 140 513 67 453 q 67 678 67 576 q 132 845 67 781 q 334 910 197 910 q 535 842 471 910 q 600 664 600 774 q 596 629 600 647 q 524 617 561 617 q 471 619 488 617 q 472 649 472 631 q 430 778 472 729 q 324 828 388 828 q 223 794 260 828 q 186 702 186 760 q 218 609 186 644 q 298 554 250 574 q 402 510 346 535 q 506 460 458 486 q 586 384 554 435 q 618 264 618 333 q 538 97 618 153 q 618 -76 618 31 q 577 -205 618 -154 q 478 -274 536 -256 q 343 -292 419 -292 q 49 -186 161 -292 q 72 -125 54 -153 q 103 -86 89 -97 l 118 -76 q 343 -189 200 -189 q 459 -156 422 -189 q 496 -74 496 -124 q 451 10 496 -24 q 344 68 407 44 q 218 120 281 92 q 111 204 156 149 q 67 342 67 260 m 263 233 q 421 163 318 201 q 496 268 496 189 q 469 335 496 306 q 410 378 442 364 q 318 417 378 393 q 226 457 258 442 q 186 349 186 421 q 263 233 186 276 z "},"¨":{"ha":657,"x_min":153,"x_max":504,"o":"m 296 843 q 215 767 296 767 q 153 831 153 767 q 233 908 153 908 q 296 843 296 908 m 504 843 q 424 767 504 767 q 361 831 361 767 q 442 908 361 908 q 504 843 504 908 z "},"©":{"ha":856,"x_min":83,"x_max":772,"o":"m 565 751 l 561 728 q 524 719 546 719 q 485 722 501 719 q 488 756 488 733 q 470 801 488 779 q 424 824 453 824 q 319 649 319 824 q 424 475 319 475 q 525 528 479 475 q 563 457 556 501 q 424 408 497 408 q 283 472 319 408 q 247 649 247 535 q 424 878 247 878 q 530 842 494 878 q 565 751 565 807 m 460 936 q 157 651 157 936 q 215 421 157 486 q 396 356 272 356 q 624 436 550 356 q 699 660 699 517 q 641 870 699 804 q 460 936 583 936 m 456 997 q 699 914 626 997 q 772 659 772 831 q 683 391 772 488 q 413 294 594 294 q 157 382 231 294 q 83 640 83 469 q 99 776 83 717 q 153 888 114 835 q 456 997 233 997 z "},"ª":{"ha":454,"x_min":60,"x_max":385,"o":"m 358 819 l 354 701 q 371 535 354 640 q 321 525 346 525 q 279 529 296 525 l 276 561 q 176 518 229 518 q 96 551 122 518 q 69 639 69 583 q 206 758 69 758 q 282 742 247 758 q 285 793 285 772 q 221 881 285 881 q 165 819 165 881 q 167 800 165 810 l 147 799 q 82 807 103 799 q 81 826 81 814 q 124 908 81 881 q 227 935 168 935 q 322 906 286 935 q 358 819 358 876 m 206 708 q 147 649 147 708 q 197 590 147 590 q 275 624 247 590 q 279 685 279 678 q 206 708 247 708 m 68 364 q 60 402 60 381 q 68 453 60 424 q 376 479 343 472 q 385 441 385 463 q 376 390 385 419 q 68 364 101 371 z "},"«":{"ha":688,"x_min":42,"x_max":590,"o":"m 317 592 q 204 389 317 592 q 317 186 214 371 q 250 150 289 158 q 193 219 225 181 q 144 281 161 258 q 42 389 103 331 q 132 483 103 447 q 193 558 161 519 q 250 628 225 597 q 317 592 293 615 m 590 592 q 478 389 481 394 q 590 186 524 303 q 524 150 558 157 q 467 219 499 181 q 417 281 435 258 q 315 389 376 331 q 406 483 376 447 q 467 558 435 519 q 524 628 499 597 q 590 592 563 617 z "},"¬":{"ha":835,"x_min":121,"x_max":719,"o":"m 619 397 q 414 410 492 410 q 243 403 336 410 q 125 390 150 397 q 121 446 121 410 q 131 513 121 482 q 363 500 226 500 q 710 519 640 500 q 704 373 704 460 q 719 232 704 286 q 669 228 700 228 q 608 238 638 228 q 619 397 619 296 z "},"®":{"ha":856,"x_min":83,"x_max":772,"o":"m 396 658 q 438 650 414 650 q 479 676 461 650 q 497 738 497 703 q 415 824 497 824 q 360 814 385 824 q 356 616 356 763 q 369 424 356 469 q 322 414 343 414 q 278 417 300 414 q 289 648 289 513 q 275 857 289 783 q 413 878 326 878 q 536 842 500 878 q 572 748 572 806 q 547 652 572 690 q 475 601 521 614 q 594 428 553 483 q 501 411 561 411 q 397 597 458 501 q 381 603 394 597 q 396 658 381 643 m 456 997 q 699 914 626 997 q 772 659 772 831 q 683 391 772 488 q 413 294 594 294 q 157 382 231 294 q 83 640 83 469 q 99 776 83 717 q 153 888 114 835 q 456 997 233 997 m 460 936 q 157 651 157 936 q 215 421 157 486 q 396 356 272 356 q 624 436 550 356 q 699 660 699 517 q 641 870 699 804 q 460 936 583 936 z "},"¯":{"ha":649,"x_min":153,"x_max":496,"o":"m 489 793 q 311 799 424 799 q 154 788 199 799 q 153 829 153 797 q 158 883 153 861 q 330 878 214 878 q 493 890 446 878 q 496 843 496 871 q 489 793 496 815 z "},"°":{"ha":475,"x_min":56,"x_max":419,"o":"m 242 949 q 292 949 242 949 q 381 905 343 949 q 419 771 419 861 q 372 630 419 681 q 229 579 325 579 q 94 625 133 579 q 56 759 56 671 q 98 898 56 847 q 242 949 140 949 m 250 876 q 132 767 132 876 q 154 677 132 703 q 231 651 176 651 q 314 683 285 651 q 343 770 343 714 q 321 851 343 826 q 250 876 299 876 z "},"±":{"ha":835,"x_min":121,"x_max":714,"o":"m 360 797 q 426 807 390 807 q 482 803 463 807 q 469 691 475 779 q 463 556 463 603 q 598 562 510 556 q 710 575 686 568 q 714 519 714 556 q 704 453 714 483 q 463 465 599 463 q 475 224 463 315 q 408 214 444 214 q 353 218 372 214 q 372 465 368 279 q 125 446 186 461 q 121 501 121 464 q 131 568 121 538 q 372 556 222 556 q 360 797 369 692 m 704 -7 q 456 6 576 6 q 243 -1 336 6 q 125 -14 150 -7 q 121 41 121 4 q 131 108 121 78 q 363 96 226 96 q 710 115 640 96 q 714 60 714 97 q 704 -7 714 24 z "},"²":{"ha":485,"x_min":51,"x_max":425,"o":"m 114 933 q 140 951 114 933 q 238 969 165 969 q 360 931 310 969 q 410 818 410 892 q 385 735 410 779 q 337 663 361 690 q 258 578 313 635 q 185 497 203 521 l 254 497 q 415 513 369 497 q 425 461 425 486 q 415 414 425 436 q 239 424 347 424 q 57 410 131 424 q 51 454 51 438 q 162 594 92 519 q 253 693 232 668 q 315 815 315 765 q 297 872 315 847 q 240 897 278 897 q 177 876 201 897 q 153 808 153 856 q 154 788 153 794 q 112 782 138 782 q 67 794 86 782 q 63 829 63 813 q 114 933 63 896 z "},"³":{"ha":514,"x_min":57,"x_max":439,"o":"m 124 933 q 149 951 124 933 q 247 969 175 969 q 369 931 319 969 q 419 814 419 892 q 361 700 419 736 q 439 579 439 660 q 389 453 439 499 q 231 408 339 408 q 57 469 122 408 q 74 514 61 493 q 99 544 88 535 l 110 553 q 235 482 158 482 q 317 507 290 482 q 344 571 344 532 q 289 657 344 635 q 234 656 268 656 q 174 660 200 656 q 171 692 171 676 q 182 725 171 708 q 245 717 206 717 q 306 747 285 717 q 328 812 328 778 q 308 872 328 846 q 249 897 288 897 q 187 876 211 897 q 163 808 163 856 q 164 788 163 794 q 122 782 147 782 q 76 794 96 782 q 72 829 72 813 q 124 933 72 896 z "},"´":{"ha":589,"x_min":153,"x_max":436,"o":"m 181 733 q 153 785 160 756 q 219 829 179 803 q 278 869 260 856 q 381 947 335 908 q 422 899 410 922 q 436 838 435 876 q 181 733 353 804 z "},"µ":{"ha":674,"x_min":81,"x_max":590,"o":"m 457 63 q 374 8 408 22 q 283 -7 339 -7 q 192 25 228 -7 q 226 -246 199 -137 q 149 -261 185 -261 q 81 -253 114 -261 q 108 257 108 10 q 83 636 108 504 q 153 649 114 649 q 231 644 193 649 q 210 321 210 454 q 228 133 210 188 q 312 79 247 79 q 461 164 376 79 q 464 288 464 206 q 439 636 464 517 q 526 650 492 650 q 586 644 561 650 q 565 305 565 456 q 590 4 565 154 q 518 -8 549 -8 q 460 -6 488 -8 l 457 63 z "},"¶":{"ha":711,"x_min":104,"x_max":672,"o":"m 567 793 q 556 425 556 696 q 575 -8 556 154 q 513 -11 551 -11 q 428 3 474 -11 q 451 389 446 63 q 388 382 424 382 q 175 458 246 382 q 104 646 104 535 q 407 910 104 910 q 672 857 564 910 q 663 790 672 819 q 643 751 653 760 q 567 793 608 776 m 438 829 l 408 831 q 225 651 225 831 q 258 529 225 583 q 368 475 292 475 q 451 497 414 475 q 438 829 451 689 z "},"·":{"ha":375,"x_min":125,"x_max":306,"o":"m 306 351 q 281 282 306 310 q 204 254 256 254 q 125 335 125 254 q 226 435 125 435 q 306 351 306 435 z "},"¸":{"ha":697,"x_min":210,"x_max":468,"o":"m 468 -172 q 314 -292 468 -292 q 211 -275 251 -292 q 210 -249 210 -271 q 228 -200 210 -228 q 316 -228 258 -228 q 374 -174 374 -228 q 311 -132 374 -132 q 244 -137 283 -132 l 267 -14 l 325 -1 l 328 -75 q 468 -172 468 -81 z "},"¹":{"ha":396,"x_min":32,"x_max":282,"o":"m 278 964 q 265 676 265 872 q 282 426 265 481 q 225 414 253 414 q 167 417 197 414 q 181 664 181 521 q 176 856 181 807 q 82 785 106 808 q 32 872 40 832 q 215 969 97 899 q 278 964 267 969 z "},"º":{"ha":460,"x_min":67,"x_max":392,"o":"m 69 731 q 230 935 69 935 q 390 731 390 935 q 356 575 390 632 q 229 518 321 518 q 103 575 138 518 q 69 731 69 632 m 150 733 q 150 661 150 733 q 229 590 150 590 q 308 733 308 590 q 229 875 308 875 q 150 733 150 875 m 75 364 q 67 402 67 381 q 75 453 67 424 q 383 479 350 472 q 392 441 392 463 q 383 390 392 419 q 75 364 108 371 z "},"»":{"ha":688,"x_min":97,"x_max":646,"o":"m 483 389 l 371 592 q 438 628 394 615 q 494 558 463 597 q 544 497 526 519 q 646 389 585 447 q 556 294 585 331 q 494 219 526 258 q 438 150 463 181 q 371 186 400 158 q 483 389 474 371 m 97 592 q 164 628 125 617 q 221 558 189 597 q 269 497 253 519 q 372 389 311 447 q 282 294 311 331 q 221 219 253 258 q 164 150 189 181 q 97 186 129 157 q 210 389 164 303 q 97 592 207 394 z "},"¼":{"ha":1235,"x_min":111,"x_max":1063,"o":"m 424 -64 q 344 -37 376 -64 q 697 953 517 368 q 733 956 719 956 q 807 931 772 956 q 453 -61 639 543 q 424 -64 431 -64 m 1053 106 l 1014 110 q 1026 6 1018 29 q 969 -7 997 -7 q 911 -4 942 -7 q 921 114 919 69 l 860 114 q 681 110 747 114 q 674 153 674 128 l 710 213 q 882 532 824 403 q 944 544 914 544 q 1022 540 975 544 q 1010 336 1010 446 q 1011 196 1010 226 q 1054 204 1043 200 q 1063 158 1063 179 q 1053 106 1063 138 m 924 189 q 925 288 925 215 q 921 454 925 361 q 785 188 860 353 q 924 189 901 188 m 357 901 q 344 614 344 810 q 361 364 344 418 q 304 351 332 351 q 246 354 276 351 q 260 601 260 458 q 256 793 260 744 q 161 722 185 746 q 111 810 119 769 q 294 907 176 836 q 357 901 346 907 z "},"½":{"ha":1235,"x_min":111,"x_max":1081,"o":"m 408 -64 q 329 -37 361 -64 q 682 953 501 368 q 718 956 704 956 q 792 931 757 956 q 438 -61 624 543 q 408 -64 415 -64 m 769 512 q 795 530 769 512 q 893 549 821 549 q 1015 510 965 549 q 1065 397 1065 471 q 1041 314 1065 358 q 992 242 1017 269 q 913 157 968 214 q 840 76 858 100 l 910 76 q 1071 92 1025 76 q 1081 40 1081 65 q 1071 -7 1081 15 q 894 3 1003 3 q 713 -11 786 3 q 707 33 707 17 q 817 173 747 99 q 908 272 888 247 q 971 394 971 344 q 952 451 971 426 q 895 476 933 476 q 833 456 857 476 q 808 388 808 435 q 810 367 808 374 q 767 361 793 361 q 722 374 742 361 q 718 408 718 393 q 769 512 718 475 m 357 901 q 344 614 344 810 q 361 364 344 418 q 304 351 332 351 q 246 354 276 351 q 260 601 260 458 q 256 793 260 744 q 161 722 185 746 q 111 810 119 769 q 294 907 176 836 q 357 901 346 907 z "},"¾":{"ha":1235,"x_min":101,"x_max":1063,"o":"m 465 -64 q 386 -37 418 -64 q 739 953 558 368 q 775 956 761 956 q 849 931 814 956 q 494 -61 681 543 q 465 -64 472 -64 m 1053 106 l 1014 110 q 1026 6 1018 29 q 969 -7 997 -7 q 911 -4 942 -7 q 921 114 919 69 l 860 114 q 681 110 747 114 q 674 153 674 128 l 710 213 q 882 532 824 403 q 944 544 914 544 q 1022 540 975 544 q 1010 336 1010 446 q 1011 196 1010 226 q 1054 204 1043 200 q 1063 158 1063 179 q 1053 106 1063 138 m 924 189 q 925 288 925 215 q 921 454 925 361 q 785 188 860 353 q 924 189 901 188 m 168 870 q 194 889 168 870 q 292 907 219 907 q 414 868 364 907 q 464 751 464 829 q 406 638 464 674 q 483 517 483 597 q 433 391 483 436 q 275 346 383 346 q 101 407 167 346 q 119 451 106 431 q 143 481 132 472 l 154 490 q 279 419 203 419 q 362 444 335 419 q 389 508 389 469 q 333 594 389 572 q 278 593 313 593 q 218 597 244 593 q 215 630 215 614 q 226 663 215 646 q 290 654 250 654 q 351 685 329 654 q 372 749 372 715 q 352 809 372 783 q 294 835 332 835 q 231 814 256 835 q 207 746 207 793 q 208 725 207 732 q 166 719 192 719 q 121 732 140 719 q 117 767 117 750 q 168 870 117 833 z "},"¿":{"ha":593,"x_min":57,"x_max":500,"o":"m 500 -244 l 499 -260 q 317 -292 425 -292 q 133 -235 208 -292 q 57 -93 57 -179 q 82 -1 57 -43 q 142 69 107 40 q 214 124 178 97 q 299 250 299 188 q 260 357 299 313 q 346 406 296 401 q 393 242 393 311 q 313 92 393 172 q 266 48 301 81 q 217 0 231 15 q 172 -101 172 -51 q 212 -181 172 -150 q 324 -211 251 -211 q 472 -156 397 -211 q 500 -244 500 -201 m 225 567 q 250 636 225 608 q 326 664 275 664 q 406 583 406 664 q 304 483 406 483 q 225 567 225 483 z "},"À":{"ha":781,"x_min":19,"x_max":758,"o":"m 550 247 q 380 251 482 251 q 207 246 278 251 q 146 -14 165 74 q 97 -17 121 -17 q 19 -3 72 -17 q 283 888 246 600 q 389 901 324 901 q 494 888 454 901 q 758 -3 532 600 q 670 -17 708 -17 q 611 -14 632 -17 q 550 247 588 90 m 231 343 q 365 342 294 342 q 525 344 436 342 q 388 803 463 588 l 379 803 q 231 343 297 597 m 469 978 q 219 1054 382 996 q 228 1122 219 1100 q 265 1174 238 1143 q 356 1108 318 1129 q 403 1081 394 1086 q 447 1056 413 1075 q 492 1031 482 1036 q 469 978 488 1001 z "},"Á":{"ha":781,"x_min":19,"x_max":758,"o":"m 550 247 q 380 251 482 251 q 207 246 278 251 q 146 -14 165 74 q 97 -17 121 -17 q 19 -3 72 -17 q 283 888 246 600 q 389 901 324 901 q 494 888 454 901 q 758 -3 532 600 q 670 -17 708 -17 q 611 -14 632 -17 q 550 247 588 90 m 231 343 q 365 342 294 342 q 525 344 436 342 q 388 803 463 588 l 379 803 q 231 343 297 597 m 551 1067 q 550 1042 551 1050 q 297 978 379 990 q 276 1032 279 1001 q 347 1068 306 1047 q 408 1100 388 1089 q 510 1164 469 1133 q 551 1067 551 1118 z "},"Â":{"ha":781,"x_min":19,"x_max":758,"o":"m 550 247 q 380 251 482 251 q 207 246 278 251 q 146 -14 165 74 q 97 -17 121 -17 q 19 -3 72 -17 q 283 888 246 600 q 389 901 324 901 q 494 888 454 901 q 758 -3 532 600 q 670 -17 708 -17 q 611 -14 632 -17 q 550 247 588 90 m 231 343 q 365 342 294 342 q 525 344 436 342 q 388 803 463 588 l 379 803 q 231 343 297 597 m 568 978 q 392 1050 474 1007 q 204 978 271 994 q 183 1032 188 1003 q 238 1064 213 1051 q 283 1089 263 1076 q 313 1108 303 1101 q 339 1126 322 1115 q 392 1174 358 1140 q 590 1031 453 1115 q 568 978 586 1001 z "},"Ã":{"ha":781,"x_min":19,"x_max":758,"o":"m 550 247 q 380 251 482 251 q 207 246 278 251 q 146 -14 165 74 q 97 -17 121 -17 q 19 -3 72 -17 q 283 888 246 600 q 389 901 324 901 q 494 888 454 901 q 758 -3 532 600 q 670 -17 708 -17 q 611 -14 632 -17 q 550 247 588 90 m 231 343 q 365 342 294 342 q 525 344 436 342 q 388 803 463 588 l 379 803 q 231 343 297 597 m 589 1069 q 526 1006 568 1033 q 450 978 485 978 q 372 1001 415 978 q 303 1024 328 1024 q 228 979 253 1024 q 183 1024 190 994 q 246 1088 204 1060 q 324 1115 288 1115 q 405 1092 361 1115 q 469 1069 449 1069 q 544 1114 519 1069 q 589 1069 582 1099 z "},"Ä":{"ha":781,"x_min":19,"x_max":758,"o":"m 550 247 q 380 251 482 251 q 207 246 278 251 q 146 -14 165 74 q 97 -17 121 -17 q 19 -3 72 -17 q 283 888 246 600 q 389 901 324 901 q 494 888 454 901 q 758 -3 532 600 q 670 -17 708 -17 q 611 -14 632 -17 q 550 247 588 90 m 231 343 q 365 342 294 342 q 525 344 436 342 q 388 803 463 588 l 379 803 q 231 343 297 597 m 565 1054 q 485 978 565 978 q 422 1042 422 978 q 503 1119 422 1119 q 565 1054 565 1119 m 357 1054 q 276 978 357 978 q 214 1042 214 978 q 294 1119 214 1119 q 357 1054 357 1119 z "},"Å":{"ha":781,"x_min":19,"x_max":758,"o":"m 550 247 q 380 251 482 251 q 207 246 278 251 q 146 -14 165 74 q 97 -17 121 -17 q 19 -3 72 -17 q 283 888 246 600 q 389 901 324 901 q 494 888 454 901 q 758 -3 532 600 q 670 -17 708 -17 q 611 -14 632 -17 q 550 247 588 90 m 231 343 q 365 342 294 342 q 525 344 436 342 q 388 803 463 588 l 379 803 q 231 343 297 597 m 510 1088 q 379 978 510 978 q 294 1004 319 978 q 268 1085 268 1031 q 399 1194 268 1194 q 485 1169 460 1194 q 510 1088 510 1144 m 396 1143 q 322 1088 322 1143 q 336 1042 322 1056 q 382 1029 350 1029 q 456 1089 456 1029 q 442 1131 456 1118 q 396 1143 428 1143 z "},"Æ":{"ha":1079,"x_min":17,"x_max":999,"o":"m 661 106 q 812 101 710 101 q 988 114 914 101 q 999 44 999 78 q 993 -15 999 10 q 882 -2 967 -8 q 714 4 797 4 q 539 -6 631 4 q 528 249 539 107 q 355 251 414 251 q 233 246 296 251 q 147 -8 199 153 q 96 -11 128 -11 q 17 3 64 -11 q 363 897 306 625 q 633 888 440 888 l 718 888 q 849 894 765 888 q 958 907 933 900 q 964 851 964 882 q 953 785 964 821 q 753 797 879 797 q 588 793 628 797 q 608 507 589 706 q 746 506 636 506 q 924 521 856 506 q 931 448 931 476 q 929 401 931 419 q 768 413 864 413 q 619 410 672 413 q 661 106 640 207 m 521 344 l 513 431 q 458 803 483 671 l 449 803 q 268 343 357 582 q 407 342 328 342 q 521 344 486 342 z "},"Ç":{"ha":744,"x_min":76,"x_max":696,"o":"m 421 -21 l 407 -19 l 410 -75 q 550 -172 550 -81 q 396 -292 550 -292 q 293 -275 333 -292 q 292 -249 292 -271 q 310 -200 292 -228 q 398 -228 340 -228 q 456 -174 456 -228 q 393 -132 456 -132 q 326 -137 365 -132 l 347 -15 q 106 199 158 11 q 76 454 76 299 q 421 910 76 910 q 628 841 560 910 q 696 664 696 772 q 692 629 696 646 q 634 617 668 617 q 567 619 600 617 q 568 649 568 631 q 529 779 568 731 q 421 828 490 828 q 190 455 190 828 q 421 82 190 82 q 533 108 475 82 q 632 181 592 135 q 688 71 675 146 q 421 -21 564 -21 z "},"È":{"ha":721,"x_min":131,"x_max":643,"o":"m 496 978 q 246 1054 408 996 q 255 1122 246 1100 q 292 1174 264 1143 q 383 1108 344 1129 q 430 1081 421 1086 q 474 1056 439 1075 q 518 1031 508 1036 q 496 978 514 1001 m 271 106 q 439 101 319 101 q 632 114 558 101 q 643 44 643 78 q 638 -15 643 10 q 526 -2 611 -8 q 336 4 442 4 q 138 -6 231 4 q 157 460 157 186 q 131 897 157 733 q 331 888 224 888 q 522 894 438 888 q 631 907 606 900 q 636 851 636 882 q 625 785 636 821 q 435 797 551 797 q 269 793 318 797 q 261 507 261 714 q 401 506 290 506 q 582 521 513 506 q 589 448 589 476 q 588 401 589 419 q 422 413 522 413 q 261 410 322 413 q 271 106 261 228 z "},"É":{"ha":721,"x_min":131,"x_max":643,"o":"m 271 106 q 439 101 319 101 q 632 114 558 101 q 643 44 643 78 q 638 -15 643 10 q 526 -2 611 -8 q 336 4 442 4 q 138 -6 231 4 q 157 460 157 186 q 131 897 157 733 q 331 888 224 888 q 522 894 438 888 q 631 907 606 900 q 636 851 636 882 q 625 785 636 821 q 435 797 551 797 q 269 793 318 797 q 261 507 261 714 q 401 506 290 506 q 582 521 513 506 q 589 448 589 476 q 588 401 589 419 q 408 413 522 413 q 261 410 293 413 q 271 106 261 228 m 564 1067 q 563 1042 564 1050 q 310 978 392 990 q 289 1032 292 1001 q 359 1068 318 1047 q 421 1100 400 1089 q 522 1164 482 1133 q 564 1067 564 1118 z "},"Ê":{"ha":721,"x_min":131,"x_max":643,"o":"m 271 106 q 439 101 319 101 q 632 114 558 101 q 643 44 643 78 q 638 -15 643 10 q 526 -2 611 -8 q 336 4 442 4 q 138 -6 231 4 q 157 460 157 186 q 131 897 157 733 q 331 888 224 888 q 522 894 438 888 q 631 907 606 900 q 636 851 636 882 q 625 785 636 821 q 435 797 551 797 q 269 793 318 797 q 261 507 261 714 q 401 506 290 506 q 582 521 513 506 q 589 448 589 476 q 588 401 589 419 q 422 413 522 413 q 261 410 322 413 q 271 106 261 228 m 572 978 q 396 1050 478 1007 q 208 978 275 994 q 188 1032 192 1003 q 242 1064 217 1051 q 287 1089 267 1076 q 317 1108 307 1101 q 342 1126 326 1115 q 396 1174 363 1140 q 594 1031 457 1115 q 572 978 590 1001 z "},"Ë":{"ha":721,"x_min":131,"x_max":643,"o":"m 564 1054 q 483 978 564 978 q 421 1042 421 978 q 501 1119 421 1119 q 564 1054 564 1119 m 356 1054 q 275 978 356 978 q 213 1042 213 978 q 293 1119 213 1119 q 356 1054 356 1119 m 271 106 q 439 101 319 101 q 632 114 558 101 q 643 44 643 78 q 638 -15 643 10 q 526 -2 611 -8 q 336 4 442 4 q 138 -6 231 4 q 157 460 157 186 q 131 897 157 733 q 331 888 224 888 q 522 894 438 888 q 631 907 606 900 q 636 851 636 882 q 625 785 636 821 q 435 797 551 797 q 269 793 318 797 q 261 507 261 714 q 401 506 290 506 q 582 521 513 506 q 589 448 589 476 q 588 401 589 419 q 422 413 522 413 q 261 410 322 413 q 271 106 261 228 z "},"Ì":{"ha":440,"x_min":79,"x_max":351,"o":"m 147 -8 q 167 454 167 154 q 143 888 167 754 q 215 901 179 901 q 290 899 251 901 q 271 411 271 744 q 294 3 271 78 q 210 -11 249 -11 q 147 -8 171 -11 m 329 978 q 79 1054 242 996 q 88 1122 79 1100 q 125 1174 97 1143 q 216 1108 178 1129 q 263 1081 254 1086 q 307 1056 272 1075 q 351 1031 342 1036 q 329 978 347 1001 z "},"Í":{"ha":440,"x_min":115,"x_max":390,"o":"m 147 -8 q 167 454 167 154 q 143 888 167 754 q 215 901 179 901 q 290 899 251 901 q 271 411 271 744 q 294 3 271 78 q 210 -11 249 -11 q 147 -8 171 -11 m 390 1067 q 389 1042 390 1050 q 136 978 218 990 q 115 1032 118 1001 q 185 1068 144 1047 q 247 1100 226 1089 q 349 1164 308 1133 q 390 1067 390 1118 z "},"Î":{"ha":440,"x_min":11,"x_max":418,"o":"m 147 -8 q 167 454 167 154 q 143 888 167 754 q 215 901 179 901 q 290 899 251 901 q 271 411 271 744 q 294 3 271 78 q 210 -11 249 -11 q 147 -8 171 -11 m 396 978 q 219 1050 301 1007 q 32 978 99 994 q 11 1032 15 1003 q 65 1064 40 1051 q 110 1089 90 1076 q 140 1108 131 1101 q 167 1126 150 1115 q 219 1174 186 1140 q 418 1031 281 1115 q 396 978 414 1001 z "},"Ï":{"ha":440,"x_min":39,"x_max":390,"o":"m 147 -8 q 167 454 167 154 q 143 888 167 754 q 215 901 179 901 q 290 899 251 901 q 271 411 271 744 q 294 3 271 78 q 210 -11 249 -11 q 147 -8 171 -11 m 182 1054 q 101 978 182 978 q 39 1042 39 978 q 119 1119 39 1119 q 182 1054 182 1119 m 390 1054 q 310 978 390 978 q 247 1042 247 978 q 328 1119 247 1119 q 390 1054 390 1119 z "},"Ð":{"ha":857,"x_min":63,"x_max":779,"o":"m 414 910 q 590 872 517 910 q 703 767 664 833 q 779 451 779 638 q 675 78 779 193 q 569 7 636 35 q 414 -21 503 -21 q 142 18 246 -21 q 161 404 158 164 q 67 393 114 400 q 63 448 63 411 q 72 515 63 485 q 161 507 117 510 q 138 871 158 743 q 414 910 257 910 m 414 78 q 660 451 660 78 q 638 639 660 558 q 558 774 615 719 q 422 828 501 828 q 275 801 342 828 q 265 504 265 686 q 474 522 369 504 q 478 467 478 503 q 468 400 478 431 q 289 410 382 410 l 265 410 q 276 107 265 236 q 414 78 342 78 z "},"Ñ":{"ha":903,"x_min":131,"x_max":782,"o":"m 135 -8 q 154 454 154 154 q 131 888 154 754 q 192 901 167 901 q 257 899 218 901 q 409 595 283 799 q 671 201 535 392 q 675 426 675 318 q 651 888 675 754 q 713 901 688 901 q 778 899 739 901 q 758 411 758 744 q 782 3 758 78 q 722 -11 740 -11 q 656 -8 703 -11 q 574 148 646 35 q 394 418 501 261 q 239 653 286 575 q 238 469 238 593 q 261 3 238 78 q 201 -11 219 -11 q 135 -8 182 -11 m 651 1069 q 589 1006 631 1033 q 513 978 547 978 q 434 1001 478 978 q 365 1024 390 1024 q 290 979 315 1024 q 246 1024 253 994 q 308 1088 267 1060 q 387 1115 350 1115 q 467 1092 424 1115 q 532 1069 511 1069 q 607 1114 582 1069 q 651 1069 644 1099 z "},"Ò":{"ha":961,"x_min":143,"x_max":825,"o":"m 143 454 q 484 910 143 910 q 825 454 825 910 q 819 308 825 371 q 791 181 813 246 q 733 74 769 115 q 634 6 697 32 q 484 -21 571 -21 q 334 6 397 -21 q 235 74 271 32 q 177 181 199 115 q 149 308 156 246 q 143 454 143 371 m 367 113 q 484 82 414 82 q 602 113 554 82 q 674 200 650 143 q 715 453 715 299 q 484 828 715 828 q 253 453 253 828 q 367 113 253 185 m 597 978 q 347 1054 510 996 q 356 1122 347 1100 q 393 1174 365 1143 q 484 1108 446 1129 q 531 1081 522 1086 q 575 1056 540 1075 q 619 1031 610 1036 q 597 978 615 1001 z "},"Ó":{"ha":835,"x_min":76,"x_max":758,"o":"m 76 454 q 417 910 76 910 q 758 454 758 910 q 752 308 758 371 q 724 181 746 246 q 667 74 703 115 q 567 6 631 32 q 417 -21 504 -21 q 267 6 331 -21 q 168 74 204 32 q 110 181 132 115 q 83 308 89 246 q 76 454 76 371 m 300 113 q 417 82 347 82 q 535 113 488 82 q 607 200 583 143 q 649 453 649 299 q 417 828 649 828 q 186 453 186 828 q 300 113 186 185 m 593 1067 q 592 1042 593 1050 q 339 978 421 990 q 318 1032 321 1001 q 388 1068 347 1047 q 450 1100 429 1089 q 551 1164 511 1133 q 593 1067 593 1118 z "},"Ô":{"ha":835,"x_min":76,"x_max":758,"o":"m 76 454 q 417 910 76 910 q 758 454 758 910 q 752 308 758 371 q 724 181 746 246 q 667 74 703 115 q 567 6 631 32 q 417 -21 504 -21 q 267 6 331 -21 q 168 74 204 32 q 110 181 132 115 q 83 308 89 246 q 76 454 76 371 m 300 113 q 417 82 347 82 q 535 113 488 82 q 607 200 583 143 q 649 453 649 299 q 417 828 649 828 q 186 453 186 828 q 300 113 186 185 m 593 978 q 417 1050 499 1007 q 229 978 296 994 q 208 1032 213 1003 q 263 1064 238 1051 q 308 1089 288 1076 q 338 1108 328 1101 q 364 1126 347 1115 q 417 1174 383 1140 q 615 1031 478 1115 q 593 978 611 1001 z "},"Õ":{"ha":835,"x_min":76,"x_max":758,"o":"m 76 454 q 417 910 76 910 q 758 454 758 910 q 752 308 758 371 q 724 181 746 246 q 667 74 703 115 q 567 6 631 32 q 417 -21 504 -21 q 267 6 331 -21 q 168 74 204 32 q 110 181 132 115 q 83 308 89 246 q 76 454 76 371 m 300 113 q 417 82 347 82 q 535 113 488 82 q 607 200 583 143 q 649 453 649 299 q 417 828 649 828 q 186 453 186 828 q 300 113 186 185 m 619 1069 q 557 1006 599 1033 q 481 978 515 978 q 402 1001 446 978 q 333 1024 358 1024 q 258 979 283 1024 q 214 1024 221 994 q 276 1088 235 1060 q 355 1115 318 1115 q 435 1092 392 1115 q 500 1069 479 1069 q 575 1114 550 1069 q 619 1069 613 1099 z "},"Ö":{"ha":835,"x_min":76,"x_max":758,"o":"m 76 454 q 417 910 76 910 q 758 454 758 910 q 752 308 758 371 q 724 181 746 246 q 667 74 703 115 q 567 6 631 32 q 417 -21 504 -21 q 267 6 331 -21 q 168 74 204 32 q 110 181 132 115 q 83 308 89 246 q 76 454 76 371 m 300 113 q 417 82 347 82 q 535 113 488 82 q 607 200 583 143 q 649 453 649 299 q 417 828 649 828 q 186 453 186 828 q 300 113 186 185 m 388 1054 q 307 978 388 978 q 244 1042 244 978 q 325 1119 244 1119 q 388 1054 388 1119 m 596 1054 q 515 978 596 978 q 453 1042 453 978 q 533 1119 453 1119 q 596 1054 596 1119 z "},"×":{"ha":835,"x_min":144,"x_max":690,"o":"m 144 646 q 226 736 172 699 q 308 637 239 715 q 417 518 378 558 q 523 634 451 553 q 608 736 594 715 q 690 646 663 699 q 481 454 604 575 q 690 264 621 317 q 652 211 672 231 q 608 174 632 192 q 523 275 594 194 q 417 390 451 356 q 308 272 376 349 q 226 174 239 194 q 144 264 172 213 q 353 454 208 313 q 144 646 246 561 z "},"Ø":{"ha":835,"x_min":76,"x_max":758,"o":"m 271 -117 q 196 -87 226 -117 l 233 21 q 108 183 140 74 q 76 454 76 292 q 417 910 76 910 q 506 900 468 910 l 533 1003 q 568 1006 556 1006 q 639 978 603 1006 l 597 865 q 758 454 758 767 q 752 308 758 371 q 724 181 746 246 q 667 74 703 115 q 567 6 631 32 q 435 -21 504 -21 q 325 -12 367 -21 l 299 -112 q 271 -117 283 -117 m 186 453 q 274 133 186 218 q 483 818 382 454 q 417 828 447 828 q 186 453 186 828 m 417 82 q 607 200 558 82 q 649 453 649 299 q 563 768 649 676 q 354 89 453 447 q 417 82 385 82 z "},"Ù":{"ha":894,"x_min":119,"x_max":778,"o":"m 758 385 q 753 245 758 301 q 728 135 747 189 q 676 49 710 81 q 451 -21 604 -21 q 194 89 256 -21 q 153 214 164 147 q 143 385 143 281 q 119 888 143 754 q 192 901 156 901 q 267 899 228 901 q 247 383 247 744 q 290 155 247 228 q 461 82 333 82 q 630 155 589 82 q 671 383 671 228 q 647 888 671 754 q 711 901 683 901 q 778 899 739 901 q 758 385 758 744 m 521 978 q 271 1054 433 996 q 280 1122 271 1100 q 317 1174 289 1143 q 408 1108 369 1129 q 455 1081 446 1086 q 499 1056 464 1075 q 543 1031 533 1036 q 521 978 539 1001 z "},"Ú":{"ha":894,"x_min":119,"x_max":778,"o":"m 758 385 q 753 245 758 301 q 728 135 747 189 q 676 49 710 81 q 451 -21 604 -21 q 194 89 256 -21 q 153 214 164 147 q 143 385 143 281 q 119 888 143 754 q 192 901 156 901 q 267 899 228 901 q 247 383 247 744 q 290 155 247 228 q 461 82 333 82 q 630 155 589 82 q 671 383 671 228 q 647 888 671 754 q 711 901 683 901 q 778 899 739 901 q 758 385 758 744 m 615 1067 q 614 1042 615 1050 q 361 978 443 990 q 340 1032 343 1001 q 410 1068 369 1047 q 472 1100 451 1089 q 574 1164 533 1133 q 615 1067 615 1118 z "},"Û":{"ha":894,"x_min":119,"x_max":778,"o":"m 758 385 q 753 245 758 301 q 728 135 747 189 q 676 49 710 81 q 451 -21 604 -21 q 194 89 256 -21 q 153 214 164 147 q 143 385 143 281 q 119 888 143 754 q 192 901 156 901 q 267 899 228 901 q 247 383 247 744 q 290 155 247 228 q 461 82 333 82 q 630 155 589 82 q 671 383 671 228 q 647 888 671 754 q 711 901 683 901 q 778 899 739 901 q 758 385 758 744 m 632 978 q 456 1050 538 1007 q 268 978 335 994 q 247 1032 251 1003 q 301 1064 276 1051 q 347 1089 326 1076 q 376 1108 367 1101 q 403 1126 386 1115 q 456 1174 422 1140 q 654 1031 517 1115 q 632 978 650 1001 z "},"Ü":{"ha":894,"x_min":119,"x_max":778,"o":"m 758 385 q 753 245 758 301 q 728 135 747 189 q 676 49 710 81 q 451 -21 604 -21 q 194 89 256 -21 q 153 214 164 147 q 143 385 143 281 q 119 888 143 754 q 192 901 156 901 q 267 899 228 901 q 247 383 247 744 q 290 155 247 228 q 461 82 333 82 q 630 155 589 82 q 671 383 671 228 q 647 888 671 754 q 711 901 683 901 q 778 899 739 901 q 758 385 758 744 m 421 1054 q 340 978 421 978 q 278 1042 278 978 q 358 1119 278 1119 q 421 1054 421 1119 m 629 1054 q 549 978 629 978 q 486 1042 486 978 q 567 1119 486 1119 q 629 1054 629 1119 z "},"Ý":{"ha":686,"x_min":19,"x_max":664,"o":"m 19 881 q 120 904 75 904 q 181 903 165 904 q 247 664 189 799 q 305 532 268 614 q 360 407 342 450 l 365 407 q 463 652 414 500 q 518 901 513 804 q 556 904 543 904 q 664 881 621 904 q 617 778 663 876 q 538 603 572 681 q 408 269 433 369 q 431 3 415 43 q 346 -11 385 -11 q 283 -8 307 -11 q 301 274 297 106 q 208 503 269 375 q 91 740 146 632 q 19 881 36 847 m 547 1067 q 546 1042 547 1050 q 293 978 375 990 q 272 1032 275 1001 q 342 1068 301 1047 q 404 1100 383 1089 q 506 1164 465 1133 q 547 1067 547 1118 z "},"Þ":{"ha":719,"x_min":125,"x_max":697,"o":"m 129 -8 q 149 454 149 154 q 125 888 149 754 q 197 901 161 901 q 272 899 233 901 q 258 763 263 836 q 394 771 319 771 q 628 697 558 771 q 697 488 697 622 q 627 271 697 354 q 414 188 557 188 q 304 208 358 188 q 314 278 304 246 q 333 321 324 310 q 430 281 374 281 q 519 315 486 281 q 576 485 576 372 q 393 692 576 692 q 254 658 333 692 q 253 469 253 596 q 276 3 253 78 q 192 -11 231 -11 q 129 -8 153 -11 z "},"ß":{"ha":747,"x_min":36,"x_max":711,"o":"m 124 567 l 44 565 q 36 606 36 582 q 39 642 36 631 l 124 642 q 150 788 128 725 q 228 894 172 851 q 379 938 283 938 q 544 880 475 938 q 614 726 614 822 q 570 575 614 631 q 461 499 526 519 q 711 240 711 446 q 561 -4 711 49 q 450 -21 513 -21 q 271 47 346 -21 q 310 136 279 94 l 319 150 q 453 68 368 68 q 590 240 590 68 q 492 415 590 371 q 408 439 451 433 q 360 446 364 444 q 351 487 351 463 q 354 522 351 511 q 499 704 499 551 q 466 812 499 769 q 379 854 433 854 q 295 835 325 854 q 253 781 265 817 q 229 628 229 719 l 229 329 q 254 8 229 136 q 169 -6 207 -6 q 107 0 132 -6 q 128 289 128 215 l 124 567 z "},"à":{"ha":657,"x_min":69,"x_max":557,"o":"m 290 304 q 209 277 240 304 q 178 193 178 250 q 276 79 178 79 q 356 99 315 79 q 418 144 396 118 q 425 256 425 232 q 290 304 368 304 m 539 479 l 533 279 q 557 4 533 164 q 485 -8 515 -8 q 426 -6 454 -8 l 422 61 q 235 -21 317 -21 q 112 31 154 -21 q 69 180 69 83 q 133 326 69 276 q 282 376 196 376 q 431 343 368 376 q 432 404 432 371 q 430 463 432 438 q 417 521 428 488 q 315 586 397 586 q 213 474 213 586 l 214 450 q 157 447 183 447 q 94 458 131 447 q 92 490 92 481 q 156 621 92 578 q 322 664 219 664 q 481 617 424 664 q 539 479 539 571 m 385 733 q 129 838 213 804 q 143 899 131 876 q 185 947 156 922 q 317 848 249 893 q 413 785 386 803 q 385 733 406 756 z "},"á":{"ha":657,"x_min":69,"x_max":557,"o":"m 290 304 q 209 277 240 304 q 178 193 178 250 q 276 79 178 79 q 356 99 315 79 q 418 144 396 118 q 425 256 425 232 q 290 304 368 304 m 539 479 l 533 279 q 557 4 533 164 q 485 -8 515 -8 q 426 -6 454 -8 l 422 61 q 235 -21 317 -21 q 112 31 154 -21 q 69 180 69 83 q 133 326 69 276 q 282 376 196 376 q 431 343 368 376 q 432 404 432 371 q 430 463 432 438 q 417 521 428 488 q 315 586 397 586 q 213 474 213 586 l 214 450 q 157 447 183 447 q 94 458 131 447 q 92 490 92 481 q 156 621 92 578 q 322 664 219 664 q 481 617 424 664 q 539 479 539 571 m 239 733 q 211 785 218 756 q 278 829 238 803 q 336 869 318 856 q 439 947 393 908 q 481 899 468 922 q 494 838 493 876 q 239 733 411 804 z "},"â":{"ha":657,"x_min":69,"x_max":557,"o":"m 290 304 q 209 277 240 304 q 178 193 178 250 q 276 79 178 79 q 356 99 315 79 q 418 144 396 118 q 425 256 425 232 q 290 304 368 304 m 539 479 l 533 279 q 557 4 533 164 q 485 -8 515 -8 q 426 -6 454 -8 l 422 61 q 235 -21 317 -21 q 112 31 154 -21 q 69 180 69 83 q 133 326 69 276 q 282 376 196 376 q 431 343 368 376 q 432 404 432 371 q 430 463 432 438 q 417 521 428 488 q 315 586 397 586 q 213 474 213 586 l 214 450 q 157 447 183 447 q 94 458 131 447 q 92 490 92 481 q 156 621 92 578 q 322 664 219 664 q 481 617 424 664 q 539 479 539 571 m 471 733 l 313 821 q 154 733 267 796 q 126 785 132 758 q 192 839 151 806 q 313 947 276 910 q 411 858 349 910 q 499 785 474 806 q 471 733 492 756 z "},"ã":{"ha":657,"x_min":69,"x_max":557,"o":"m 290 304 q 209 277 240 304 q 178 193 178 250 q 276 79 178 79 q 356 99 315 79 q 418 144 396 118 q 425 256 425 232 q 290 304 368 304 m 539 479 l 533 279 q 557 4 533 164 q 485 -8 515 -8 q 426 -6 454 -8 l 422 61 q 235 -21 317 -21 q 112 31 154 -21 q 69 180 69 83 q 133 326 69 276 q 282 376 196 376 q 431 343 368 376 q 432 404 432 371 q 430 463 432 438 q 417 521 428 488 q 315 586 397 586 q 213 474 213 586 l 214 450 q 157 447 183 447 q 94 458 131 447 q 92 490 92 481 q 156 621 92 578 q 322 664 219 664 q 481 617 424 664 q 539 479 539 571 m 114 792 q 174 862 133 831 q 250 893 214 893 q 330 870 286 893 q 397 847 374 847 q 467 903 432 847 q 514 857 504 886 q 454 788 494 819 q 377 756 414 756 q 297 778 340 756 q 223 801 253 801 q 158 746 193 801 q 114 792 124 763 z "},"ä":{"ha":657,"x_min":69,"x_max":557,"o":"m 290 304 q 209 277 240 304 q 178 193 178 250 q 276 79 178 79 q 356 99 315 79 q 418 144 396 118 q 425 256 425 232 q 290 304 368 304 m 539 479 l 533 279 q 557 4 533 164 q 485 -8 515 -8 q 426 -6 454 -8 l 422 61 q 235 -21 317 -21 q 112 31 154 -21 q 69 180 69 83 q 133 326 69 276 q 282 376 196 376 q 431 343 368 376 q 432 404 432 371 q 430 463 432 438 q 417 521 428 488 q 315 586 397 586 q 213 474 213 586 l 214 450 q 157 447 183 447 q 94 458 131 447 q 92 490 92 481 q 156 621 92 578 q 322 664 219 664 q 481 617 424 664 q 539 479 539 571 m 281 832 q 200 756 281 756 q 138 819 138 756 q 218 897 138 897 q 281 832 281 897 m 489 832 q 408 756 489 756 q 346 819 346 756 q 426 897 346 897 q 489 832 489 897 z "},"å":{"ha":657,"x_min":69,"x_max":557,"o":"m 290 304 q 209 277 240 304 q 178 193 178 250 q 276 79 178 79 q 356 99 315 79 q 418 144 396 118 q 425 256 425 232 q 290 304 368 304 m 539 479 l 533 279 q 557 4 533 164 q 485 -8 515 -8 q 426 -6 454 -8 l 422 61 q 235 -21 317 -21 q 112 31 154 -21 q 69 180 69 83 q 133 326 69 276 q 282 376 196 376 q 431 343 368 376 q 432 404 432 371 q 430 463 432 438 q 417 521 428 488 q 315 586 397 586 q 213 474 213 586 l 214 450 q 157 447 183 447 q 94 458 131 447 q 92 490 92 481 q 156 621 92 578 q 322 664 219 664 q 481 617 424 664 q 539 479 539 571 m 332 963 q 413 935 389 963 q 436 852 436 908 q 406 764 436 796 q 313 732 376 732 q 208 847 208 732 q 332 963 208 963 m 329 911 q 263 849 263 911 q 275 798 263 813 q 315 783 288 783 q 382 850 382 783 q 329 911 382 911 z "},"æ":{"ha":994,"x_min":69,"x_max":925,"o":"m 213 474 l 214 450 q 157 447 183 447 q 94 458 131 447 q 92 490 92 481 q 156 621 92 578 q 335 664 219 664 q 506 569 451 664 q 690 664 581 664 q 861 603 800 664 q 922 460 922 543 q 907 342 922 378 q 700 308 803 308 q 544 315 597 308 q 617 101 544 149 q 701 79 650 79 q 874 165 785 79 q 925 56 914 124 q 690 -22 814 -22 q 478 92 538 -22 q 362 5 415 31 q 231 -21 308 -21 q 112 31 154 -21 q 69 180 69 83 q 133 326 69 276 q 282 376 196 376 q 431 343 368 376 q 432 404 432 371 q 430 463 432 438 q 417 521 428 488 q 315 586 397 586 q 213 474 213 586 m 276 79 q 447 175 371 79 q 436 246 442 199 q 290 304 371 304 q 209 277 240 304 q 178 193 178 250 q 276 79 178 79 m 690 586 q 546 396 560 586 q 681 389 604 389 q 800 403 757 389 q 806 454 806 453 q 778 547 806 508 q 690 586 750 586 z "},"ç":{"ha":597,"x_min":63,"x_max":542,"o":"m 318 664 q 470 619 407 664 q 533 490 533 575 q 531 458 533 481 q 468 447 494 447 q 411 450 442 447 q 413 476 413 460 q 385 554 413 522 q 308 586 358 586 q 176 333 176 586 q 321 79 176 79 q 490 165 390 79 q 542 56 531 124 q 318 -21 429 -18 l 321 -75 q 461 -172 461 -81 q 307 -292 461 -292 q 204 -275 244 -292 q 203 -249 203 -271 q 221 -200 203 -228 q 309 -228 251 -228 q 367 -174 367 -228 q 304 -132 367 -132 q 238 -137 276 -132 l 258 -17 q 106 94 149 1 q 63 334 63 186 q 122 573 63 482 q 318 664 182 664 z "},"è":{"ha":626,"x_min":63,"x_max":557,"o":"m 539 342 q 331 308 435 308 q 176 315 228 308 q 217 133 176 190 q 333 79 254 79 q 506 165 413 79 q 557 56 546 124 q 322 -21 444 -21 q 119 74 176 -21 q 63 326 63 169 q 126 574 63 483 q 332 664 189 664 q 492 603 432 664 q 553 460 553 543 q 539 342 554 378 m 322 586 q 178 396 194 586 q 313 389 238 389 q 432 403 389 389 q 438 454 438 453 q 410 547 438 508 q 322 586 382 586 m 378 733 q 122 838 206 804 q 136 899 124 876 q 178 947 149 922 q 310 848 242 893 q 406 785 379 803 q 378 733 399 756 z "},"é":{"ha":626,"x_min":63,"x_max":557,"o":"m 539 342 q 331 308 435 308 q 176 315 228 308 q 217 133 176 190 q 333 79 254 79 q 506 165 413 79 q 557 56 546 124 q 322 -21 444 -21 q 119 74 176 -21 q 63 326 63 169 q 126 574 63 483 q 332 664 189 664 q 492 603 432 664 q 553 460 553 543 q 539 342 554 378 m 322 586 q 178 396 194 586 q 313 389 238 389 q 432 403 389 389 q 438 454 438 453 q 410 547 438 508 q 322 586 382 586 m 235 733 q 207 785 214 756 q 274 829 233 803 q 333 869 314 856 q 435 947 389 908 q 476 899 464 922 q 490 838 489 876 q 235 733 407 804 z "},"ê":{"ha":626,"x_min":63,"x_max":557,"o":"m 539 342 q 331 308 435 308 q 176 315 228 308 q 217 133 176 190 q 333 79 254 79 q 506 165 413 79 q 557 56 546 124 q 322 -21 444 -21 q 119 74 176 -21 q 63 326 63 169 q 126 574 63 483 q 332 664 189 664 q 492 603 432 664 q 553 460 553 543 q 539 342 554 378 m 322 586 q 178 396 194 586 q 313 389 238 389 q 432 403 389 389 q 438 454 438 453 q 410 547 438 508 q 322 586 382 586 m 486 733 l 328 821 q 169 733 282 796 q 142 785 147 758 q 208 839 167 806 q 328 947 292 910 q 426 858 364 910 q 514 785 489 806 q 486 733 507 756 z "},"ë":{"ha":626,"x_min":63,"x_max":557,"o":"m 539 342 q 331 308 435 308 q 176 315 228 308 q 217 133 176 190 q 333 79 254 79 q 506 165 413 79 q 557 56 546 124 q 322 -21 444 -21 q 119 74 176 -21 q 63 326 63 169 q 126 574 63 483 q 332 664 189 664 q 492 603 432 664 q 553 460 553 543 q 539 342 554 378 m 322 586 q 178 396 194 586 q 313 389 238 389 q 432 403 389 389 q 438 454 438 453 q 410 547 438 508 q 322 586 382 586 m 510 843 q 429 767 510 767 q 367 831 367 767 q 447 908 367 908 q 510 843 510 908 m 301 843 q 221 767 301 767 q 158 831 158 767 q 239 908 158 908 q 301 843 301 908 z "},"ì":{"ha":365,"x_min":19,"x_max":303,"o":"m 240 356 q 265 8 240 128 q 175 -6 215 -6 q 118 -3 135 -6 q 139 344 139 186 q 114 636 139 501 q 199 650 161 650 q 261 644 236 650 q 240 356 240 429 m 275 733 q 19 838 103 804 q 33 899 21 876 q 75 947 46 922 q 208 848 139 893 q 303 785 276 803 q 275 733 296 756 z "},"í":{"ha":365,"x_min":89,"x_max":372,"o":"m 117 733 q 89 785 96 756 q 156 829 115 803 q 214 869 196 856 q 317 947 271 908 q 358 899 346 922 q 372 838 371 876 q 117 733 289 804 m 240 356 q 265 8 240 128 q 175 -6 215 -6 q 118 -3 135 -6 q 139 344 139 186 q 114 636 139 501 q 199 650 161 650 q 261 644 236 650 q 240 356 240 429 z "},"î":{"ha":365,"x_min":3,"x_max":375,"o":"m 240 356 q 265 8 240 128 q 175 -6 215 -6 q 118 -3 135 -6 q 139 344 139 186 q 114 636 139 501 q 199 650 161 650 q 261 644 236 650 q 240 356 240 429 m 347 733 l 189 821 q 31 733 143 796 q 3 785 8 758 q 69 839 28 806 q 189 947 153 910 q 288 858 225 910 q 375 785 350 806 q 347 733 368 756 z "},"ï":{"ha":365,"x_min":13,"x_max":364,"o":"m 240 356 q 265 8 240 128 q 175 -6 215 -6 q 118 -3 135 -6 q 139 344 139 186 q 114 636 139 501 q 199 650 161 650 q 261 644 236 650 q 240 356 240 429 m 156 843 q 75 767 156 767 q 13 831 13 767 q 93 908 13 908 q 156 843 156 908 m 364 843 q 283 767 364 767 q 221 831 221 767 q 301 908 221 908 q 364 843 364 908 z "},"ð":{"ha":675,"x_min":76,"x_max":599,"o":"m 599 342 q 531 56 599 138 q 453 1 503 22 q 331 -21 404 -21 q 205 6 258 -21 q 125 85 151 33 q 76 328 76 175 q 135 573 76 482 q 325 664 194 664 q 464 604 400 664 q 346 790 419 725 q 231 719 261 742 q 201 779 201 738 q 292 829 242 800 q 171 885 243 858 q 189 954 171 932 q 365 871 290 924 q 488 946 454 921 q 518 883 515 929 q 415 829 471 860 q 599 342 599 661 m 190 333 q 190 206 190 333 q 338 79 190 79 q 485 333 485 79 q 338 586 485 586 q 190 333 190 586 z "},"ñ":{"ha":740,"x_min":111,"x_max":642,"o":"m 615 464 l 614 351 q 642 13 614 172 q 552 -6 596 -6 q 492 -3 508 -6 q 508 323 508 182 q 488 519 508 464 q 400 575 468 575 q 243 486 332 575 q 240 356 240 443 q 265 8 240 128 q 175 -6 215 -6 q 118 -3 135 -6 q 139 328 139 186 q 111 636 139 469 q 199 650 167 650 q 249 644 231 650 l 249 574 q 440 664 344 664 q 576 615 536 664 q 615 464 615 565 m 169 792 q 229 862 189 831 q 306 893 269 893 q 385 870 342 893 q 453 847 429 847 q 522 903 488 847 q 569 857 560 886 q 510 788 550 819 q 433 756 469 756 q 352 778 396 756 q 278 801 308 801 q 214 746 249 801 q 169 792 179 763 z "},"ò":{"ha":647,"x_min":63,"x_max":585,"o":"m 63 329 q 324 664 63 664 q 585 329 585 664 q 536 85 585 175 q 324 -21 481 -21 q 111 85 167 -21 q 63 329 63 175 m 176 333 q 176 206 176 333 q 324 79 176 79 q 471 333 471 79 q 324 586 471 586 q 176 333 176 586 m 396 733 q 140 838 224 804 q 154 899 142 876 q 196 947 167 922 q 328 848 260 893 q 424 785 397 803 q 396 733 417 756 z "},"ó":{"ha":647,"x_min":63,"x_max":585,"o":"m 63 329 q 324 664 63 664 q 585 329 585 664 q 536 85 585 175 q 324 -21 481 -21 q 111 85 167 -21 q 63 329 63 175 m 176 333 q 176 206 176 333 q 324 79 176 79 q 471 333 471 79 q 324 586 471 586 q 176 333 176 586 m 251 733 q 224 785 231 756 q 290 829 250 803 q 350 869 331 856 q 451 947 406 908 q 493 899 481 922 q 507 838 506 876 q 251 733 424 804 z "},"ô":{"ha":647,"x_min":63,"x_max":585,"o":"m 63 329 q 324 664 63 664 q 585 329 585 664 q 536 85 585 175 q 324 -21 481 -21 q 111 85 167 -21 q 63 329 63 175 m 176 333 q 176 206 176 333 q 324 79 176 79 q 471 333 471 79 q 324 586 471 586 q 176 333 176 586 m 482 733 l 324 821 q 165 733 278 796 q 138 785 143 758 q 203 839 163 806 q 324 947 288 910 q 422 858 360 910 q 510 785 485 806 q 482 733 503 756 z "},"õ":{"ha":647,"x_min":63,"x_max":585,"o":"m 63 329 q 324 664 63 664 q 585 329 585 664 q 536 85 585 175 q 324 -21 481 -21 q 111 85 167 -21 q 63 329 63 175 m 176 333 q 176 206 176 333 q 324 79 176 79 q 471 333 471 79 q 324 586 471 586 q 176 333 176 586 m 124 792 q 183 862 143 831 q 260 893 224 893 q 340 870 296 893 q 407 847 383 847 q 476 903 442 847 q 524 857 514 886 q 464 788 504 819 q 387 756 424 756 q 306 778 350 756 q 233 801 263 801 q 168 746 203 801 q 124 792 133 763 z "},"ö":{"ha":647,"x_min":63,"x_max":585,"o":"m 63 329 q 324 664 63 664 q 585 329 585 664 q 536 85 585 175 q 324 -21 481 -21 q 111 85 167 -21 q 63 329 63 175 m 176 333 q 176 206 176 333 q 324 79 176 79 q 471 333 471 79 q 324 586 471 586 q 176 333 176 586 m 290 843 q 210 767 290 767 q 147 831 147 767 q 228 908 147 908 q 290 843 290 908 m 499 843 q 418 767 499 767 q 356 831 356 767 q 436 908 356 908 q 499 843 499 908 z "},"÷":{"ha":835,"x_min":121,"x_max":714,"o":"m 704 397 q 456 410 576 410 q 243 403 336 410 q 125 390 150 397 q 121 446 121 410 q 131 513 121 482 q 363 500 226 500 q 710 519 640 500 q 714 464 714 500 q 704 397 714 428 m 507 694 q 482 625 507 653 q 406 597 457 597 q 326 678 326 597 q 428 778 326 778 q 507 694 507 778 m 507 229 q 482 160 507 188 q 406 132 457 132 q 326 213 326 132 q 428 313 326 313 q 507 229 507 313 z "},"ø":{"ha":647,"x_min":63,"x_max":585,"o":"m 526 732 q 478 621 497 669 q 585 329 585 544 q 536 85 585 175 q 324 -21 481 -21 q 246 -12 281 -21 l 215 -110 q 189 -112 196 -112 q 121 -90 149 -112 l 168 21 q 63 329 63 94 q 324 664 63 664 q 400 656 364 664 l 431 751 q 472 754 447 754 q 526 732 497 754 m 176 329 q 214 136 176 199 q 374 576 294 346 q 324 586 347 586 q 176 329 176 586 m 324 79 q 471 329 471 79 q 436 518 471 450 q 279 85 357 318 q 324 79 296 79 z "},"ù":{"ha":697,"x_min":90,"x_max":597,"o":"m 114 179 l 115 292 q 90 636 115 504 q 161 649 122 649 q 238 644 200 649 q 217 321 217 454 q 235 133 217 188 q 319 79 254 79 q 468 164 383 79 q 471 288 471 206 q 446 636 471 517 q 533 650 499 650 q 593 644 568 650 q 572 305 572 456 q 597 4 572 154 q 525 -8 556 -8 q 467 -6 494 -8 l 464 63 q 274 -21 361 -21 q 151 28 188 -21 q 114 179 114 78 m 415 733 q 160 838 243 804 q 174 899 161 876 q 215 947 186 922 q 348 848 279 893 q 443 785 417 803 q 415 733 436 756 z "},"ú":{"ha":697,"x_min":90,"x_max":597,"o":"m 114 179 l 115 292 q 90 636 115 504 q 161 649 122 649 q 238 644 200 649 q 217 321 217 454 q 235 133 217 188 q 319 79 254 79 q 468 164 383 79 q 471 288 471 206 q 446 636 471 517 q 533 650 499 650 q 593 644 568 650 q 572 305 572 456 q 597 4 572 154 q 525 -8 556 -8 q 467 -6 494 -8 l 464 63 q 274 -21 361 -21 q 151 28 188 -21 q 114 179 114 78 m 272 733 q 244 785 251 756 q 311 829 271 803 q 369 869 351 856 q 472 947 426 908 q 514 899 501 922 q 528 838 526 876 q 272 733 444 804 z "},"û":{"ha":697,"x_min":90,"x_max":597,"o":"m 114 179 l 115 292 q 90 636 115 504 q 161 649 122 649 q 238 644 200 649 q 217 321 217 454 q 235 133 217 188 q 319 79 254 79 q 468 164 383 79 q 471 288 471 206 q 446 636 471 517 q 533 650 499 650 q 593 644 568 650 q 572 305 572 456 q 597 4 572 154 q 525 -8 556 -8 q 467 -6 494 -8 l 464 63 q 274 -21 361 -21 q 151 28 188 -21 q 114 179 114 78 m 503 733 l 344 821 q 186 733 299 796 q 158 785 164 758 q 225 839 183 806 q 344 947 308 910 q 443 858 381 910 q 531 785 506 806 q 503 733 524 756 z "},"ü":{"ha":697,"x_min":90,"x_max":597,"o":"m 114 179 l 115 292 q 90 636 115 504 q 161 649 122 649 q 238 644 200 649 q 217 321 217 454 q 235 133 217 188 q 319 79 254 79 q 468 164 383 79 q 471 288 471 206 q 446 636 471 517 q 533 650 499 650 q 593 644 568 650 q 572 305 572 456 q 597 4 572 154 q 525 -8 556 -8 q 467 -6 494 -8 l 464 63 q 274 -21 361 -21 q 151 28 188 -21 q 114 179 114 78 m 519 843 q 439 767 519 767 q 376 831 376 767 q 457 908 376 908 q 519 843 519 908 m 311 843 q 231 767 311 767 q 168 831 168 767 q 249 908 168 908 q 311 843 311 908 z "},"ý":{"ha":615,"x_min":-25,"x_max":604,"o":"m 349 -25 q 327 -90 349 -25 q 250 -223 306 -154 q 118 -292 194 -292 q -25 -247 42 -292 q 21 -132 -19 -167 q 122 -189 63 -189 q 194 -135 154 -189 q 260 -8 235 -81 q 152 308 224 119 q 15 628 81 496 q 116 651 71 651 q 176 650 161 651 q 314 154 190 451 l 319 154 q 409 394 365 242 q 458 649 453 547 q 496 651 483 651 q 604 628 561 651 q 481 327 569 550 q 349 -25 392 104 m 257 733 q 229 785 236 756 q 296 829 256 803 q 356 869 336 856 q 457 947 411 908 q 499 899 486 922 q 513 838 511 876 q 257 733 429 804 z "},"þ":{"ha":686,"x_min":83,"x_max":610,"o":"m 83 -289 q 111 322 111 -29 q 107 754 111 674 q 86 933 103 835 q 158 947 122 947 q 233 944 194 947 q 213 569 213 779 q 414 664 319 664 q 610 331 610 664 q 558 99 610 203 q 476 11 532 43 q 352 -21 421 -21 q 211 13 283 -21 q 235 -278 217 -192 q 156 -292 204 -292 q 83 -289 108 -292 m 340 79 q 492 349 492 79 q 439 556 492 513 q 372 575 413 575 q 288 549 332 575 q 213 485 243 522 q 210 111 210 369 q 340 79 290 79 z "},"ÿ":{"ha":613,"x_min":-24,"x_max":606,"o":"m 350 -25 q 328 -90 350 -25 q 251 -223 307 -154 q 119 -292 196 -292 q -24 -247 43 -292 q 22 -132 -18 -167 q 124 -189 64 -189 q 196 -135 156 -189 q 261 -8 236 -81 q 153 308 225 119 q 17 628 82 496 q 117 651 72 651 q 178 650 163 651 q 315 154 192 451 l 321 154 q 410 394 367 242 q 460 649 454 547 q 497 651 485 651 q 606 628 563 651 q 482 327 571 550 q 350 -25 393 104 m 299 843 q 218 767 299 767 q 156 831 156 767 q 236 908 156 908 q 299 843 299 908 m 507 843 q 426 767 507 767 q 364 831 364 767 q 444 908 364 908 q 507 843 507 908 z "},"ı":{"ha":365,"x_min":114,"x_max":265,"o":"m 240 356 q 265 8 240 128 q 175 -6 215 -6 q 118 -3 135 -6 q 139 344 139 186 q 114 636 139 501 q 199 650 161 650 q 261 644 236 650 q 240 356 240 429 z "},"Ł":{"ha":615,"x_min":38,"x_max":599,"o":"m 46 308 q 38 349 38 325 q 46 408 38 372 l 154 444 q 131 888 154 750 q 203 901 167 901 q 278 899 239 901 q 258 481 258 749 q 438 554 393 529 q 446 513 446 538 q 438 454 446 489 l 258 392 q 268 106 258 222 q 415 101 317 101 q 588 114 514 101 q 599 44 599 78 q 593 -15 599 10 q 482 -2 567 -8 q 313 4 397 4 q 135 -6 228 4 q 154 354 149 146 q 46 308 71 322 z "},"ł":{"ha":350,"x_min":19,"x_max":344,"o":"m 28 314 q 19 354 19 331 q 28 414 19 378 l 128 447 q 124 755 128 675 q 103 933 119 835 q 175 947 139 947 q 250 944 211 947 q 229 503 229 774 l 229 483 q 336 531 296 508 q 344 490 344 514 q 336 431 344 467 l 229 394 q 254 8 233 72 q 169 -6 208 -6 q 107 -3 131 -6 q 128 358 126 169 q 28 314 63 333 z "},"Œ":{"ha":1119,"x_min":76,"x_max":1042,"o":"m 669 106 q 838 101 718 101 q 1031 114 957 101 q 1042 44 1042 78 q 1036 -15 1042 10 q 924 -2 1010 -8 q 732 4 839 4 q 551 0 625 4 q 413 -21 494 -21 q 267 6 331 -21 q 168 74 204 32 q 110 181 132 115 q 83 308 89 246 q 76 454 76 371 q 417 910 76 910 q 526 894 474 910 q 721 888 606 888 q 1029 907 960 888 q 1035 851 1035 882 q 1024 785 1035 821 q 833 797 950 797 q 668 793 717 797 q 660 507 660 714 q 800 506 689 506 q 981 521 911 506 q 988 448 988 476 q 986 401 988 419 q 806 413 921 413 q 660 410 692 413 q 669 106 660 228 m 300 113 q 422 82 347 82 q 550 124 497 82 q 556 436 556 285 q 538 789 556 588 q 417 828 486 828 q 242 726 297 828 q 186 453 186 625 q 300 113 186 185 z "},"œ":{"ha":1033,"x_min":63,"x_max":964,"o":"m 324 664 q 533 551 471 664 q 739 664 604 664 q 899 603 839 664 q 960 460 960 543 q 946 342 961 378 q 739 308 842 308 q 585 315 636 308 q 583 285 585 294 q 740 79 593 79 q 913 165 819 79 q 964 56 953 124 q 729 -22 849 -22 q 526 89 588 -22 q 324 -21 465 -21 q 111 85 167 -21 q 63 329 63 175 q 324 664 63 664 m 176 333 q 176 206 176 333 q 324 79 176 79 q 471 333 471 79 q 324 586 471 586 q 176 333 176 586 m 729 586 q 585 396 600 586 q 720 389 644 389 q 839 403 796 389 q 844 454 844 453 q 817 547 844 508 q 729 586 789 586 z "},"Š":{"ha":671,"x_min":64,"x_max":629,"o":"m 133 194 q 235 102 175 136 q 367 68 296 68 q 474 107 438 68 q 511 201 511 146 q 467 301 511 257 q 359 378 422 346 q 233 445 296 410 q 126 540 171 481 q 82 690 82 600 q 147 845 82 781 q 349 910 211 910 q 551 842 486 910 q 615 664 615 774 q 611 629 615 647 q 539 617 575 617 q 486 619 503 617 q 488 649 488 631 q 445 778 488 729 q 339 828 403 828 q 238 794 275 828 q 201 698 201 760 q 245 591 201 636 q 352 513 289 546 q 478 442 415 479 q 585 344 542 406 q 629 191 629 282 q 555 40 629 100 q 372 -21 481 -21 q 64 85 176 -21 q 87 146 69 118 q 119 183 104 174 l 133 194 m 169 1160 q 346 1088 264 1131 q 533 1160 467 1143 q 554 1106 550 1135 q 500 1074 525 1086 q 455 1049 475 1061 q 425 1029 435 1036 q 400 1011 415 1022 q 346 964 379 997 q 147 1107 285 1022 q 169 1160 151 1136 z "},"š":{"ha":560,"x_min":44,"x_max":501,"o":"m 501 175 q 438 28 501 76 q 278 -21 374 -21 q 44 56 144 -21 q 66 116 50 86 q 94 161 82 146 l 108 175 q 281 72 181 72 q 360 93 329 72 q 392 151 392 114 q 358 217 392 188 q 275 266 324 246 q 178 309 226 286 q 95 375 129 332 q 61 478 61 418 q 117 614 61 564 q 284 664 172 664 q 445 615 396 664 q 494 463 494 567 q 438 451 464 451 q 372 460 411 451 q 375 490 375 479 q 350 562 375 533 q 278 590 325 590 q 201 569 232 590 q 171 503 171 547 q 205 428 171 460 q 288 376 239 396 q 385 334 336 356 q 467 273 433 313 q 501 175 501 233 m 119 933 l 278 846 q 436 933 324 871 q 464 882 458 908 q 397 828 439 861 q 278 719 314 757 q 179 809 242 757 q 92 882 117 861 q 119 933 99 911 z "},"Ÿ":{"ha":647,"x_min":1,"x_max":646,"o":"m 1 881 q 102 904 57 904 q 163 903 147 904 q 228 664 171 799 q 287 532 250 614 q 342 407 324 450 l 347 407 q 445 652 396 500 q 500 901 494 804 q 538 904 525 904 q 646 881 603 904 q 599 778 644 876 q 519 603 554 681 q 390 269 415 369 q 413 3 397 43 q 328 -11 367 -11 q 265 -8 289 -11 q 283 274 279 106 q 190 503 251 375 q 73 740 128 632 q 1 881 18 847 m 511 1054 q 431 978 511 978 q 368 1042 368 978 q 449 1119 368 1119 q 511 1054 511 1119 m 303 1054 q 222 978 303 978 q 160 1042 160 978 q 240 1119 160 1119 q 303 1054 303 1119 z "},"Ž":{"ha":675,"x_min":42,"x_max":633,"o":"m 375 796 q 75 768 179 796 q 63 835 63 810 q 71 897 63 860 q 347 888 143 888 q 626 896 551 888 q 633 843 633 882 q 411 444 574 731 q 219 106 249 158 q 414 101 283 101 q 618 114 544 101 q 629 44 629 78 q 624 -15 629 10 q 486 -2 599 -8 q 259 4 374 4 q 51 -6 144 4 q 42 44 43 15 q 260 413 100 136 q 486 796 421 690 l 375 796 m 154 1160 q 331 1088 249 1131 q 518 1160 451 1143 q 539 1106 535 1135 q 458 1060 493 1079 q 331 964 383 1017 q 132 1107 269 1022 q 154 1160 136 1136 z "},"ž":{"ha":556,"x_min":21,"x_max":507,"o":"m 276 551 q 54 525 153 551 q 42 592 42 567 q 50 654 42 617 q 274 644 122 644 q 500 653 425 644 q 507 600 507 639 q 344 334 450 493 q 197 103 239 175 l 258 103 q 489 129 399 103 q 503 54 503 86 q 496 -10 503 22 q 260 3 376 3 q 31 -6 143 3 q 21 44 22 15 q 201 308 81 138 q 371 551 321 478 l 276 551 m 111 933 l 269 846 q 428 933 315 871 q 456 882 450 908 q 389 828 431 861 q 269 719 306 757 q 171 809 233 757 q 83 882 108 861 q 111 933 90 911 z "},"ƒ":{"ha":606,"x_min":-46,"x_max":606,"o":"m 297 381 q 315 -96 315 -89 q 264 -244 315 -197 q 126 -292 213 -292 q -44 -261 40 -292 l -46 -243 q -21 -142 -46 -189 q 120 -190 68 -190 q 187 -144 172 -190 q 201 11 201 -99 q 185 382 201 121 l 60 382 q 49 424 49 404 q 53 460 49 443 l 181 460 q 175 658 175 601 q 228 861 175 797 q 397 925 282 925 q 558 865 511 925 q 606 721 606 806 q 601 686 606 703 q 538 674 578 674 q 476 679 497 674 q 478 706 478 690 q 392 843 478 843 q 310 791 329 843 q 292 630 292 739 q 294 461 292 521 q 515 471 417 464 q 525 423 525 451 q 519 374 525 394 q 297 381 447 378 z "},"ˆ":{"ha":678,"x_min":153,"x_max":525,"o":"m 497 733 q 339 821 497 733 q 181 733 293 796 q 153 785 158 758 q 219 839 178 806 q 339 947 303 910 q 438 858 375 910 q 525 785 500 806 q 497 733 518 756 z "},"ˇ":{"ha":678,"x_min":153,"x_max":525,"o":"m 181 933 q 339 846 181 933 q 497 933 385 871 q 525 882 519 908 q 458 828 500 861 q 339 719 375 757 q 240 809 303 757 q 153 882 178 861 q 181 933 160 911 z "},"˘":{"ha":658,"x_min":153,"x_max":506,"o":"m 247 858 q 261 845 247 858 q 329 832 276 832 q 413 858 382 832 q 467 933 443 883 q 506 882 499 917 q 437 777 483 821 q 329 733 390 733 q 222 777 268 733 q 153 882 175 821 q 192 933 160 917 q 247 858 217 883 z "},"˙":{"ha":326,"x_min":83,"x_max":242,"o":"m 242 865 q 153 779 242 779 q 83 850 83 779 q 172 938 83 938 q 242 865 242 938 z "},"˚":{"ha":536,"x_min":153,"x_max":381,"o":"m 276 963 q 357 935 333 963 q 381 852 381 908 q 351 764 381 796 q 257 732 321 732 q 153 847 153 732 q 276 963 153 963 m 274 911 q 207 849 207 911 q 219 798 207 813 q 260 783 232 783 q 326 850 326 783 q 274 911 326 911 z "},"˛":{"ha":444,"x_min":69,"x_max":375,"o":"m 168 -160 q 226 -217 168 -217 q 353 -146 301 -217 q 375 -232 375 -182 q 217 -292 314 -292 q 108 -256 147 -292 q 69 -163 69 -221 q 121 -51 69 -106 q 263 29 172 4 l 317 4 q 208 -67 249 -18 q 168 -160 168 -115 z "},"˜":{"ha":706,"x_min":153,"x_max":553,"o":"m 153 792 q 213 862 172 831 q 289 893 253 893 q 369 870 325 893 q 436 847 413 847 q 506 903 471 847 q 553 857 543 886 q 493 788 533 819 q 416 756 453 756 q 335 778 379 756 q 262 801 292 801 q 197 746 232 801 q 153 792 163 763 z "},"˝":{"ha":1178,"x_min":164,"x_max":700,"o":"m 203 733 q 164 785 181 750 q 220 829 186 803 q 269 869 254 856 q 353 947 310 901 q 409 900 390 922 q 436 838 428 878 q 203 733 317 788 m 467 733 q 428 785 444 750 q 484 829 450 803 q 533 869 518 856 q 617 947 574 901 q 673 900 654 922 q 700 838 692 878 q 467 733 536 768 z "},"π":{"ha":863,"x_min":69,"x_max":793,"o":"m 675 356 q 700 8 675 128 q 617 -6 650 -6 q 553 -3 583 -6 q 574 315 574 186 q 560 558 574 443 q 424 560 506 560 q 311 558 342 560 q 300 356 300 428 q 325 8 300 128 q 242 -6 275 -6 q 178 -3 208 -6 q 199 308 199 186 q 186 551 199 429 q 76 540 88 543 q 69 595 69 561 q 82 663 69 629 q 365 650 200 650 q 786 669 704 650 q 793 615 793 649 q 781 547 793 581 q 686 553 747 550 q 675 356 675 425 z "},"–":{"ha":697,"x_min":28,"x_max":669,"o":"m 658 299 q 384 311 522 311 q 153 304 246 311 q 33 292 60 297 q 28 344 28 311 q 39 414 28 378 q 282 401 142 401 q 531 408 422 401 q 664 421 639 414 q 669 365 669 396 q 658 299 669 335 z "},"—":{"ha":1015,"x_min":28,"x_max":988,"o":"m 968 299 q 554 311 740 311 q 225 304 368 311 q 36 292 82 297 q 28 345 28 311 q 47 414 28 379 q 436 401 218 401 q 979 421 858 401 q 988 365 988 396 q 968 299 988 333 z "},"‘":{"ha":363,"x_min":83,"x_max":279,"o":"m 272 947 q 279 913 279 926 q 275 879 279 900 q 182 783 182 879 q 218 744 182 749 q 271 676 271 740 q 248 602 271 628 q 165 576 225 576 q 83 688 83 576 q 128 873 83 799 q 272 947 172 947 z "},"’":{"ha":363,"x_min":83,"x_max":279,"o":"m 90 576 q 83 610 83 597 q 88 644 83 624 q 181 740 181 644 q 144 779 181 775 q 92 847 92 783 q 115 922 92 896 q 197 947 138 947 q 279 836 279 947 q 235 651 279 725 q 90 576 190 576 z "},"‚":{"ha":390,"x_min":111,"x_max":307,"o":"m 118 -211 q 111 -177 111 -190 q 115 -143 111 -164 q 208 -47 208 -143 q 172 -8 208 -12 q 119 60 119 -4 q 142 134 119 108 q 225 160 165 160 q 307 49 307 160 q 263 -137 307 -62 q 118 -211 218 -211 z "},"“":{"ha":614,"x_min":83,"x_max":531,"o":"m 272 947 q 279 913 279 926 q 275 879 279 900 q 182 783 182 879 q 218 744 182 749 q 271 676 271 740 q 248 602 271 628 q 165 576 225 576 q 83 688 83 576 q 128 873 83 799 q 272 947 172 947 m 524 947 q 531 913 531 926 q 526 879 531 900 q 433 783 433 879 q 469 744 433 749 q 522 676 522 740 q 499 602 522 628 q 417 576 476 576 q 335 688 335 576 q 379 873 335 799 q 524 947 424 947 z "},"”":{"ha":614,"x_min":83,"x_max":531,"o":"m 90 576 q 83 610 83 597 q 88 644 83 624 q 181 740 181 644 q 144 779 181 775 q 92 847 92 783 q 115 922 92 896 q 197 947 138 947 q 279 836 279 947 q 235 651 279 725 q 90 576 190 576 m 342 576 q 335 610 335 597 q 339 644 335 624 q 432 740 432 644 q 396 779 432 775 q 343 847 343 783 q 366 922 343 896 q 449 947 389 947 q 531 836 531 947 q 486 651 531 725 q 342 576 442 576 z "},"„":{"ha":642,"x_min":111,"x_max":558,"o":"m 118 -211 q 111 -177 111 -190 q 115 -143 111 -164 q 208 -47 208 -143 q 172 -8 208 -12 q 119 60 119 -4 q 142 134 119 108 q 225 160 165 160 q 307 49 307 160 q 263 -137 307 -62 q 118 -211 218 -211 m 369 -211 q 363 -177 363 -190 q 367 -143 363 -164 q 460 -47 460 -143 q 424 -8 460 -12 q 371 60 371 -4 q 394 134 371 108 q 476 160 417 160 q 558 49 558 160 q 514 -137 558 -62 q 369 -211 469 -211 z "},"†":{"ha":593,"x_min":14,"x_max":579,"o":"m 346 469 q 369 -3 346 72 q 285 -17 324 -17 q 222 -14 246 -17 q 242 358 242 149 q 240 628 242 568 q 18 608 60 619 q 14 664 14 628 q 24 731 14 700 q 238 718 117 718 q 218 896 231 824 q 290 910 254 910 q 365 907 326 910 q 350 718 356 829 q 575 738 525 722 q 579 683 579 719 q 569 615 579 646 q 346 628 471 625 l 346 469 z "},"‡":{"ha":593,"x_min":11,"x_max":579,"o":"m 346 469 q 349 265 346 333 q 572 285 522 269 q 576 229 576 265 q 567 163 576 193 q 353 175 490 172 q 369 -3 360 24 q 285 -17 324 -17 q 222 -14 246 -17 q 236 175 232 60 q 15 156 57 167 q 11 210 11 174 q 21 278 11 247 q 239 265 138 265 q 242 472 242 376 q 240 628 242 568 q 18 608 60 619 q 14 664 14 628 q 24 731 14 700 q 238 718 117 718 q 218 896 231 824 q 290 910 254 910 q 365 907 326 910 q 350 718 356 829 q 575 738 525 722 q 579 683 579 719 q 569 615 579 646 q 346 628 471 625 l 346 469 z "},"•":{"ha":419,"x_min":83,"x_max":336,"o":"m 336 465 q 301 367 336 406 q 194 329 267 329 q 83 442 83 329 q 225 582 83 582 q 336 465 336 582 z "},"…":{"ha":1125,"x_min":125,"x_max":1056,"o":"m 306 76 q 281 7 306 35 q 204 -21 256 -21 q 125 60 125 -21 q 226 160 125 160 q 306 76 306 160 m 681 76 q 656 7 681 35 q 579 -21 631 -21 q 500 60 500 -21 q 601 160 500 160 q 681 76 681 160 m 1056 76 q 1031 7 1056 35 q 954 -21 1006 -21 q 875 60 875 -21 q 976 160 875 160 q 1056 76 1056 160 z "},"‰":{"ha":1699,"x_min":69,"x_max":1643,"o":"m 465 -64 q 386 -37 418 -64 q 739 953 558 368 q 775 956 761 956 q 849 931 814 956 q 494 -61 681 543 q 465 -64 472 -64 m 961 549 q 1063 549 961 549 q 1165 268 1165 549 q 961 -12 1165 -12 q 757 268 757 -12 q 961 549 757 549 m 962 475 q 908 475 962 475 q 854 268 854 475 q 962 61 854 61 q 1069 268 1069 61 q 962 475 1069 475 m 274 907 q 376 907 274 907 q 478 626 478 907 q 274 346 478 346 q 69 626 69 346 q 274 907 69 907 m 274 833 q 220 833 274 833 q 167 626 167 833 q 274 419 167 419 q 382 626 382 419 q 274 833 382 833 m 1439 549 q 1541 549 1439 549 q 1643 268 1643 549 q 1439 -12 1643 -12 q 1235 268 1235 -12 q 1439 549 1235 549 m 1440 475 q 1386 475 1440 475 q 1332 268 1332 475 q 1440 61 1332 61 q 1547 268 1547 61 q 1440 475 1547 475 z "},"‹":{"ha":414,"x_min":42,"x_max":317,"o":"m 317 592 q 204 389 207 394 q 317 186 250 303 q 250 150 285 157 q 193 219 225 181 q 144 281 161 258 q 42 389 103 331 q 132 483 103 447 q 193 558 161 519 q 250 628 225 597 q 317 592 289 617 z "},"›":{"ha":414,"x_min":97,"x_max":372,"o":"m 97 592 q 164 628 125 617 q 221 558 189 597 q 269 497 253 519 q 372 389 311 447 q 282 294 311 331 q 221 219 253 258 q 164 150 189 181 q 97 186 129 157 q 210 389 164 303 q 97 592 207 394 z "},"⁄":{"ha":1235,"x_min":386,"x_max":849,"o":"m 465 -64 q 386 -37 418 -64 q 739 953 558 368 q 775 956 761 956 q 849 931 814 956 q 494 -61 681 543 q 465 -64 472 -64 z "},"₀":{"ha":524,"x_min":60,"x_max":468,"o":"m 264 400 q 366 400 264 400 q 468 119 468 400 q 264 -161 468 -161 q 60 119 60 -161 q 264 400 60 400 m 265 326 q 211 326 265 326 q 157 119 157 326 q 265 -87 157 -87 q 372 119 372 -87 q 265 326 372 326 z "},"₁":{"ha":368,"x_min":25,"x_max":275,"o":"m 271 394 q 258 107 258 303 q 275 -143 258 -89 q 218 -156 246 -156 q 160 -153 190 -156 q 174 94 174 -49 q 169 286 174 238 q 75 215 99 239 q 25 303 33 263 q 208 400 90 329 q 271 394 260 400 z "},"₂":{"ha":485,"x_min":51,"x_max":425,"o":"m 114 363 q 140 382 114 363 q 238 400 165 400 q 360 361 310 400 q 410 249 410 322 q 385 165 410 210 q 337 93 361 121 q 258 8 313 65 q 185 -72 203 -49 l 254 -72 q 415 -57 369 -72 q 425 -108 425 -83 q 415 -156 425 -133 q 239 -146 347 -146 q 57 -160 131 -146 q 51 -115 51 -132 q 162 24 92 -50 q 253 124 232 99 q 315 246 315 196 q 297 303 315 278 q 240 328 278 328 q 177 307 201 328 q 153 239 153 286 q 154 218 153 225 q 112 213 138 213 q 67 225 86 213 q 63 260 63 244 q 114 363 63 326 z "},"₃":{"ha":514,"x_min":57,"x_max":439,"o":"m 124 363 q 149 382 124 363 q 247 400 175 400 q 369 361 319 400 q 419 244 419 322 q 361 131 419 167 q 439 10 439 90 q 389 -116 439 -71 q 231 -161 339 -161 q 57 -100 122 -161 q 74 -56 61 -76 q 99 -25 88 -35 l 110 -17 q 235 -87 158 -87 q 317 -62 290 -87 q 344 1 344 -37 q 289 88 344 65 q 234 86 268 86 q 174 90 200 86 q 171 123 171 107 q 182 156 171 139 q 245 147 206 147 q 306 178 285 147 q 328 242 328 208 q 308 302 328 276 q 249 328 288 328 q 187 307 211 328 q 163 239 163 286 q 164 218 163 225 q 122 213 147 213 q 76 225 96 213 q 72 260 72 244 q 124 363 72 326 z "},"₄":{"ha":500,"x_min":44,"x_max":433,"o":"m 424 -43 l 385 -39 q 397 -143 389 -119 q 340 -156 368 -156 q 282 -153 313 -156 q 292 -35 290 -79 l 231 -35 q 51 -39 118 -35 q 44 4 44 -21 l 81 64 q 253 383 194 254 q 315 396 285 396 q 393 392 346 396 q 381 188 381 297 q 382 47 381 78 q 425 56 414 51 q 433 10 433 31 q 424 -43 433 -11 m 294 40 q 296 139 296 67 q 292 306 296 211 q 156 39 231 204 q 294 40 272 39 z "},"₅":{"ha":514,"x_min":49,"x_max":431,"o":"m 233 192 q 383 139 336 192 q 431 11 431 86 q 380 -112 431 -64 q 222 -161 329 -161 q 49 -100 114 -161 q 66 -56 53 -76 q 90 -25 79 -35 l 101 -17 q 226 -87 150 -87 q 309 -59 282 -87 q 336 11 336 -31 q 312 85 336 53 q 230 118 288 118 q 136 94 172 118 q 79 106 107 94 q 106 347 106 176 q 103 396 106 371 q 253 388 208 388 q 411 396 299 388 q 415 346 415 363 q 406 300 415 329 q 261 314 356 314 l 193 314 q 179 188 182 246 q 233 192 211 192 z "},"₆":{"ha":494,"x_min":50,"x_max":425,"o":"m 406 256 q 354 246 376 246 q 310 253 332 246 q 292 308 310 285 q 234 331 274 331 q 168 276 194 331 q 142 142 142 221 q 258 194 189 194 q 376 147 326 194 q 425 21 425 100 q 371 -110 425 -58 q 224 -161 317 -161 q 91 -97 132 -161 q 50 103 50 -32 q 243 400 50 400 q 364 359 324 400 q 406 256 404 318 m 234 -87 q 253 -87 234 -87 q 302 -60 272 -87 q 332 17 332 -33 q 308 95 332 68 q 243 122 283 122 q 174 94 203 122 q 146 15 146 65 q 171 -61 146 -35 q 234 -87 196 -87 z "},"₇":{"ha":433,"x_min":35,"x_max":392,"o":"m 206 314 q 40 300 96 314 q 35 346 35 328 q 44 397 35 364 q 215 388 113 388 q 386 401 317 388 q 392 357 392 379 q 272 93 326 236 q 204 -144 217 -50 q 150 -156 181 -156 q 99 -137 119 -156 q 263 314 129 -33 l 206 314 z "},"₈":{"ha":476,"x_min":43,"x_max":426,"o":"m 43 -25 q 140 128 43 53 q 58 258 58 181 q 105 358 58 317 q 236 400 151 400 q 367 360 321 400 q 413 254 413 321 q 339 121 413 188 q 426 -7 426 67 q 368 -121 426 -81 q 233 -161 310 -161 q 75 -108 128 -161 q 43 -25 43 -75 m 139 -12 q 236 -87 139 -87 q 305 -62 279 -87 q 331 -7 331 -36 q 300 44 331 22 q 203 94 269 65 q 139 -12 139 39 m 236 332 q 176 315 201 332 q 151 268 151 297 q 171 217 151 239 q 210 185 190 196 q 269 156 229 175 q 322 254 322 201 q 236 332 322 332 z "},"₉":{"ha":494,"x_min":50,"x_max":425,"o":"m 61 -7 q 116 3 93 3 q 154 -3 139 3 q 174 -66 154 -42 q 226 -90 193 -90 q 335 97 335 -90 q 219 46 290 46 q 99 93 149 46 q 50 219 50 140 q 103 349 50 297 q 250 400 157 400 q 384 336 343 400 q 425 138 425 272 q 228 -161 425 -161 q 103 -118 144 -161 q 61 -7 61 -75 m 233 117 q 252 117 233 117 q 301 144 271 117 q 331 222 331 171 q 306 299 331 272 q 242 326 282 326 q 173 298 203 326 q 143 219 143 269 q 169 143 143 169 q 233 117 194 117 z "},"€":{"ha":819,"x_min":28,"x_max":722,"o":"m 456 910 q 653 848 590 910 q 717 706 717 786 q 713 671 717 688 q 649 658 689 658 q 588 664 608 658 q 589 690 589 675 q 556 790 589 753 q 456 828 522 828 q 229 549 257 828 q 494 560 385 551 q 504 512 504 540 q 499 463 504 483 q 225 471 364 468 l 225 453 q 229 356 225 403 q 493 354 317 354 q 504 313 504 332 q 500 276 504 293 q 242 275 325 276 q 456 82 286 82 q 568 108 510 82 q 667 181 626 135 q 722 71 710 146 q 449 -21 599 -21 q 222 56 299 -21 q 122 271 144 132 l 38 265 q 28 313 28 285 q 33 363 28 342 q 114 358 113 358 q 111 454 111 389 l 111 471 l 39 471 q 28 513 28 493 q 32 549 28 532 l 115 549 q 456 910 149 910 z "},"™":{"ha":946,"x_min":60,"x_max":833,"o":"m 425 532 q 435 756 435 606 q 422 975 435 906 q 463 986 444 986 q 499 983 481 986 q 629 699 513 915 q 743 975 724 889 q 790 986 767 986 q 831 983 813 986 q 819 742 819 904 q 833 535 819 581 q 788 525 811 525 q 742 528 765 525 q 753 767 753 608 l 753 824 q 654 610 726 781 q 622 604 635 604 q 592 607 610 604 q 492 807 564 671 l 492 768 q 506 535 492 575 q 459 525 481 525 q 425 532 438 525 m 256 919 q 253 724 253 869 q 268 535 253 578 q 219 525 240 525 q 175 528 197 525 q 186 749 186 624 q 182 919 186 874 q 65 908 99 915 q 60 942 60 925 q 67 988 60 960 q 229 979 126 979 q 376 990 332 979 q 382 956 382 974 q 375 911 382 939 q 256 919 311 918 z "},"Ω":{"ha":1010,"x_min":108,"x_max":901,"o":"m 781 508 q 505 828 781 828 q 229 508 229 828 q 278 334 229 414 q 411 232 326 254 l 411 3 q 117 -11 229 3 q 111 40 111 14 q 122 99 111 65 q 240 88 192 88 q 317 90 289 88 l 328 182 q 164 319 219 225 q 108 522 108 414 q 192 789 108 675 q 316 883 236 847 q 504 918 396 918 q 693 883 613 918 q 817 789 774 847 q 901 522 901 675 q 845 319 901 414 q 679 182 789 225 q 685 136 681 167 q 692 90 690 106 q 768 88 719 88 q 886 99 817 88 q 897 40 897 65 q 892 -11 897 14 q 597 3 779 3 l 597 232 q 732 334 683 254 q 781 508 781 414 z "},"∂":{"ha":675,"x_min":60,"x_max":618,"o":"m 618 488 q 558 157 618 274 q 497 67 533 108 q 290 -21 421 -21 q 110 38 160 -21 q 60 204 60 97 q 140 532 60 400 q 379 664 221 664 q 510 604 456 664 q 428 782 486 721 q 257 885 371 843 q 286 954 265 933 q 618 488 618 853 m 297 79 q 413 136 367 79 q 493 428 493 238 q 378 586 493 586 q 234 485 288 586 q 181 231 181 383 q 297 79 181 79 z "},"∆":{"ha":779,"x_min":19,"x_max":758,"o":"m 758 -3 q 394 4 656 4 q 19 -3 133 4 q 283 888 246 600 q 389 901 324 901 q 494 888 454 901 q 758 -3 532 600 m 174 99 q 365 92 271 92 q 583 104 458 92 q 389 803 518 376 l 368 803 q 174 99 243 388 z "},"∏":{"ha":1043,"x_min":97,"x_max":946,"o":"m 821 785 q 814 409 814 649 q 821 -37 814 169 q 838 -278 828 -244 q 753 -292 792 -292 q 690 -289 714 -292 q 710 258 710 -126 q 699 789 710 642 q 486 792 554 792 q 335 788 418 792 q 328 410 328 651 q 335 -37 328 169 q 351 -278 342 -244 q 267 -292 306 -292 q 204 -289 228 -292 q 224 251 224 -126 q 214 782 224 629 q 104 772 142 778 q 97 828 97 793 q 113 900 97 863 q 444 888 250 888 q 939 907 842 888 q 946 851 946 886 q 931 779 946 817 q 821 785 890 782 z "},"∑":{"ha":797,"x_min":71,"x_max":756,"o":"m 272 792 l 240 792 l 536 349 q 547 307 547 333 q 536 264 547 281 l 249 -164 q 518 -169 365 -169 q 744 -157 671 -169 q 756 -231 756 -193 q 750 -293 756 -268 q 613 -280 725 -286 q 336 -274 500 -274 q 81 -283 172 -274 q 71 -233 72 -262 q 418 307 344 176 q 71 847 344 438 q 78 900 71 878 q 330 888 215 888 q 577 894 444 888 q 744 907 710 900 q 751 851 751 886 q 736 779 751 817 q 272 792 553 792 z "},"−":{"ha":835,"x_min":121,"x_max":714,"o":"m 704 397 q 456 410 576 410 q 243 403 336 410 q 125 390 150 397 q 121 446 121 410 q 131 513 121 482 q 363 500 226 500 q 710 519 640 500 q 714 464 714 500 q 704 397 714 428 z "},"√":{"ha":835,"x_min":65,"x_max":946,"o":"m 639 1078 q 771 1075 672 1075 q 939 1088 869 1075 q 946 1038 946 1064 q 931 974 946 1011 q 744 986 819 986 q 597 500 678 808 q 482 -3 517 192 q 378 -17 442 -17 q 274 -3 314 -17 q 65 640 154 429 q 166 664 121 664 q 226 663 211 664 q 372 90 269 400 l 378 90 q 639 1078 511 533 z "},"∞":{"ha":1075,"x_min":69,"x_max":1006,"o":"m 317 722 q 533 558 475 722 q 628 679 575 636 q 773 722 682 722 q 935 654 864 722 q 1006 444 1006 586 q 937 235 1006 301 q 758 168 868 168 q 540 332 599 168 q 446 211 499 254 q 302 168 393 168 q 140 236 211 168 q 69 447 69 304 q 138 656 69 589 q 317 722 207 722 m 924 438 q 924 473 924 438 q 883 560 924 508 q 775 611 842 611 q 667 564 708 611 q 583 424 625 517 q 658 313 615 350 q 772 275 701 275 q 883 322 842 275 q 924 438 924 368 m 151 452 q 151 417 151 452 q 192 331 151 382 q 300 279 233 279 q 408 326 367 279 q 490 467 449 374 q 416 578 458 542 q 303 615 374 615 q 192 569 233 615 q 151 452 151 522 z "},"∫":{"ha":556,"x_min":0,"x_max":556,"o":"m 307 703 q 333 251 307 594 q 360 -119 360 -92 q 311 -250 360 -208 q 172 -292 263 -292 q 3 -239 81 -292 q 0 -207 0 -229 q 29 -117 0 -154 q 176 -190 108 -190 q 228 -165 210 -190 q 247 -94 247 -140 q 221 325 247 17 q 194 725 194 633 q 243 858 194 817 q 383 900 292 900 q 551 847 474 900 q 556 817 556 838 q 525 725 556 764 q 378 799 446 799 q 326 774 344 799 q 307 703 307 749 z "},"≈":{"ha":835,"x_min":117,"x_max":719,"o":"m 697 539 q 600 585 663 585 q 418 545 538 585 q 233 506 299 506 q 117 543 167 506 q 136 649 117 597 q 234 603 171 603 q 417 642 297 603 q 603 682 538 682 q 719 644 669 682 q 697 539 719 597 m 697 275 q 600 321 663 321 q 418 281 538 321 q 233 242 299 242 q 117 279 167 242 q 136 385 117 333 q 234 339 171 339 q 417 378 297 339 q 603 418 538 418 q 719 381 669 418 q 697 275 719 333 z "},"≠":{"ha":835,"x_min":121,"x_max":714,"o":"m 225 -64 q 133 -37 171 -64 q 275 267 194 86 q 125 251 151 258 q 121 307 121 271 q 131 374 121 343 q 315 361 210 364 q 392 549 342 424 l 379 549 q 243 542 336 549 q 125 529 150 536 q 121 584 121 547 q 131 651 121 621 q 428 639 229 639 q 546 953 475 757 q 602 956 571 956 q 674 931 633 956 q 538 642 618 821 q 710 658 672 647 q 714 603 714 640 q 704 536 714 567 q 496 547 608 544 q 419 361 469 486 l 456 361 q 592 367 499 361 q 710 381 685 374 q 714 326 714 363 q 704 258 714 289 q 383 271 578 271 q 260 -61 340 163 q 225 -64 235 -64 z "},"≤":{"ha":835,"x_min":121,"x_max":714,"o":"m 131 454 q 121 509 121 474 q 131 565 121 544 q 539 775 303 631 q 639 842 619 824 q 669 792 651 826 q 692 731 686 758 q 431 608 586 689 q 244 510 276 528 q 442 405 310 474 q 692 289 574 336 q 669 227 686 261 q 639 178 651 193 q 539 244 619 196 q 131 454 303 389 m 704 -7 q 456 6 576 6 q 243 -1 336 6 q 125 -14 150 -7 q 121 41 121 4 q 131 108 121 78 q 363 96 226 96 q 710 115 640 96 q 714 60 714 97 q 704 -7 714 24 z "},"≥":{"ha":835,"x_min":121,"x_max":714,"o":"m 682 565 q 692 509 692 544 q 682 454 692 474 q 272 244 506 386 q 174 178 193 196 q 144 227 161 193 q 121 289 126 261 q 371 405 239 336 q 568 510 503 474 q 415 590 504 546 q 121 731 239 683 q 144 792 126 758 q 174 842 161 826 q 272 775 193 824 q 682 565 510 631 m 704 -7 q 456 6 576 6 q 243 -1 336 6 q 125 -14 150 -7 q 121 41 121 4 q 131 108 121 78 q 363 96 226 96 q 710 115 640 96 q 714 60 714 97 q 704 -7 714 24 z "},"◊":{"ha":832,"x_min":83,"x_max":749,"o":"m 631 307 q 568 461 615 343 q 413 807 483 674 l 397 807 q 274 529 339 699 q 186 307 208 360 q 247 151 208 254 q 397 -193 339 -85 l 413 -193 q 549 106 483 -60 q 631 307 615 271 m 515 -278 q 416 -292 474 -292 q 317 -278 358 -292 q 208 6 296 -201 q 83 307 121 213 q 178 535 121 401 q 317 892 296 815 q 416 906 358 906 q 515 892 474 906 q 624 608 536 815 q 749 307 711 401 q 656 79 711 213 q 515 -278 536 -201 z "},"":{"ha":156,"x_min":0,"x_max":0,"o":""},"ﬁ":{"ha":750,"x_min":47,"x_max":651,"o":"m 131 567 l 56 565 q 47 606 47 582 q 50 642 47 631 l 129 642 l 129 697 q 303 938 129 938 q 431 908 376 938 q 385 793 431 829 q 301 854 349 854 q 231 689 231 854 q 232 642 231 657 l 242 642 q 459 646 358 642 q 590 650 560 650 q 646 644 621 650 q 625 356 625 429 q 650 8 625 128 q 560 -6 600 -6 q 503 -3 519 -6 q 524 316 524 186 q 510 564 524 446 q 249 568 389 568 l 239 568 l 239 436 l 240 329 q 265 8 240 136 q 181 -6 218 -6 q 118 0 143 -6 q 139 260 139 215 q 131 567 139 304 m 651 851 q 563 765 651 765 q 493 836 493 765 q 582 924 493 924 q 651 851 651 924 z "},"ﬂ":{"ha":724,"x_min":36,"x_max":639,"o":"m 128 289 l 124 567 q 44 565 68 567 q 36 606 36 582 q 39 642 36 631 l 119 642 q 118 697 118 660 q 174 880 118 824 q 339 936 231 936 q 494 917 404 936 q 596 946 538 946 q 635 944 621 946 q 614 433 614 774 q 639 8 614 93 q 566 -6 593 -6 q 492 -3 539 -6 q 513 450 513 178 q 503 807 513 722 q 325 856 376 856 q 247 818 274 856 q 219 689 219 781 q 221 643 219 658 q 394 651 338 646 q 403 612 403 633 q 397 560 403 590 q 228 565 344 563 l 228 435 l 229 329 q 254 8 229 136 q 169 -6 207 -6 q 107 0 132 -6 q 128 289 128 215 z "}}}
